<svg width="179" height="234" viewBox="0 0 179 234" fill="none" xmlns="http://www.w3.org/2000/svg">
<g clip-path="url(#clip0_152_7623)">
<path d="M89.5002 234C138.93 234 179 194.348 179 145.434C179 96.5198 138.93 56.8672 89.5002 56.8672C40.0706 56.8672 0 96.5198 0 145.434C0 194.348 40.0706 234 89.5002 234Z" fill="#0A7E54"/>
<path opacity="0.86" d="M89.5002 234C138.93 234 179 194.348 179 145.434C179 96.5198 138.93 56.8672 89.5002 56.8672C40.0706 56.8672 0 96.5198 0 145.434C0 194.348 40.0706 234 89.5002 234Z" fill="white"/>
<path opacity="0.1" d="M42.3834 146.796L61.0398 173.073L29.8463 178.208L19.3987 164.258L42.3834 146.796Z" fill="#0A7E54"/>
<path opacity="0.1" d="M162.529 106.387L149.992 96.0576L136.062 115.565L140.42 120.554L162.529 106.387Z" fill="#0A7E54"/>
<path opacity="0.1" d="M34.3735 115.565L45.9022 107.048L55.6257 122.683L44.4062 128.515L34.3735 115.565Z" fill="#0A7E54"/>
<path opacity="0.1" d="M102.413 210.015L115.68 199.332L123.874 210.015L109.099 220.009L102.413 210.015Z" fill="#0A7E54"/>
<path opacity="0.1" d="M49.2969 132.821L61.3364 124.116L70.9395 136.612L65.7159 141.891L73.4964 151.824L80.6906 146.796L89.0732 157.289L73.4964 168.661L49.2969 132.821Z" fill="#0A7E54"/>
<path d="M178.868 150.271L134.032 180.311L154.685 206.121C154.071 206.77 153.446 207.408 152.81 208.035L131.851 181.844L95.4345 208.707L111.564 231.288C110.635 231.523 109.701 231.741 108.76 231.943L92.5035 209.18L69.6936 177.704L29.7606 185.666L32.9556 214.085C31.947 213.272 30.9581 212.438 29.989 211.581L27.0195 185.164L0.498396 154.803C0.338201 153.33 0.217561 151.845 0.136475 150.35L28.7994 183.165L67.9848 175.35L12.9868 99.4611C13.4851 98.648 13.9974 97.8436 14.5234 97.048L70.8556 174.777L71.1641 174.716L112.257 146.102L83.149 108.708L87.3527 56.8946C88.0676 56.877 88.7835 56.8682 89.5005 56.8682C89.6785 56.8682 89.8565 56.8682 90.0344 56.8711L85.8931 107.904L114.443 144.579L169.708 106.099C170.111 106.897 170.501 107.703 170.876 108.518L72.4842 177.026L93.885 206.556L132.335 178.192L132.37 178.236L178.984 147.004C178.966 148.099 178.928 149.185 178.868 150.271Z" fill="white"/>
<path d="M89.4979 3.76416C61.3268 3.76416 38.5803 26.2968 38.5803 54.089C38.5803 62.828 41.9325 72.6715 44.7926 78.2142C54.1812 96.4201 88.9322 147.326 88.9322 147.326C88.9909 147.424 89.0741 147.504 89.1737 147.56C89.2733 147.616 89.3858 147.645 89.5003 147.645C89.6147 147.645 89.7273 147.616 89.8268 147.56C89.9264 147.504 90.0096 147.424 90.0684 147.326C90.0684 147.326 124.819 96.4201 134.208 78.2142C137.066 72.6703 140.42 62.828 140.42 54.089C140.42 26.2957 117.673 3.76416 89.5023 3.76416H89.4979Z" fill="#0A7E54"/>
<path opacity="0.12" d="M89.4979 3.76416C61.3268 3.76416 38.5803 26.2968 38.5803 54.089C38.5803 62.828 41.9325 72.6715 44.7926 78.2142C54.1812 96.4201 88.9322 147.326 88.9322 147.326C88.9909 147.424 89.0741 147.504 89.1737 147.56C89.2733 147.616 89.3858 147.645 89.5003 147.645C89.6147 147.645 89.7273 147.616 89.8268 147.56C89.9264 147.504 90.0096 147.424 90.0684 147.326C90.0684 147.326 124.819 96.4201 134.208 78.2142C137.066 72.6703 140.42 62.828 140.42 54.089C140.42 26.2957 117.673 3.76416 89.5023 3.76416H89.4979Z" fill="white"/>
<path d="M88.4037 11.6564C88.7692 11.6473 89.1311 11.6564 89.4987 11.6564C95.1442 11.6564 100.733 12.7669 105.942 14.9232C111.15 17.0796 115.873 20.2387 119.836 24.2171C123.8 28.1956 126.924 32.9138 129.029 38.0978C131.134 43.2817 132.176 48.8279 132.096 54.414C131.775 77.1187 113.049 95.6507 90.1041 95.9654C78.8653 96.0955 68.0298 91.826 59.9575 84.0867C51.8851 76.3475 47.2298 65.7655 47.0056 54.6453C46.7813 43.5252 51.0061 32.7678 58.76 24.716C66.5139 16.6642 77.1686 11.9702 88.4037 11.6564Z" fill="white"/>
<path d="M102.413 0.667969C102.413 0.667969 114.737 0.817097 110.488 17.6247L109.331 17.6805L106.982 17.7938L102.413 0.667969Z" fill="#0C0C0C"/>
<path d="M88.6511 35.2591C88.7087 35.2538 88.9356 45.7372 101.25 45.2969C109.775 44.993 113.156 36.185 113.35 36.1923C112.442 35.9645 110.909 35.6249 110.511 35.3944C109.2 34.6312 107.574 33.8271 107.242 31.2385C107.052 29.7463 107.771 22.1779 107.7 20.6729L94.5392 23.0539C94.597 26.2288 95.5852 33.6222 91.0617 34.75C90.3091 34.9365 89.5013 35.1035 88.6511 35.2591Z" fill="#B28B67"/>
<path opacity="0.52" d="M94.0105 31.8571C94.2406 31.2132 94.3986 30.5462 94.4816 29.8682C94.686 28.3217 94.7187 26.7577 94.5792 25.2041C97.2451 24.9518 99.786 23.9645 101.913 22.3545C102.121 23.2493 103.301 27.1689 102.9 27.9968C102.139 29.5617 98.7609 32.0397 94.0105 31.8571Z" fill="#0C0C0C"/>
<path d="M96.9982 30.0051C102.157 29.6408 108.381 26.5314 108.598 19.6145L108.792 13.3731C109.009 6.45614 105.513 0.736374 98.9313 0.534697C92.3499 0.333313 87.2554 5.78946 87.0392 12.7073L86.9528 15.4703C86.9399 16.4194 86.9923 17.3684 87.1098 18.3105C87.4017 20.8028 87.8553 24.5927 89.5127 27.1805C91.0793 29.6235 93.7021 30.237 96.9982 30.0051Z" fill="#B28B67"/>
<path d="M108.123 21.709C110.123 21.7704 111.81 19.7025 111.872 17.7233C111.934 15.7441 110.347 14.6031 108.347 14.542L107.275 15.8366L106.403 21.6565L108.123 21.709Z" fill="#B28B67"/>
<path d="M87.3776 20.3994C87.7389 20.8234 88.2016 21.1513 88.7236 21.3531C89.2457 21.5549 89.8104 21.6243 90.3664 21.5549C91.5554 21.4081 92.3448 21.8898 93.3378 21.7927C94.1714 21.7113 94.3167 21.3306 95.738 21.2472C101.23 20.9243 105.35 20.5829 105.618 13.7634L109.113 10.6919C109.113 10.6919 110.675 29.5888 100.346 32.1008C93.9993 33.6444 88.0463 33.0795 87.2809 27.1807C86.6591 22.3877 87.3776 20.3994 87.3776 20.3994Z" fill="#0C0C0C"/>
<path d="M89.9793 16.4533C90.4272 16.4533 90.7903 16.094 90.7903 15.6507C90.7903 15.2075 90.4272 14.8481 89.9793 14.8481C89.5313 14.8481 89.1682 15.2075 89.1682 15.6507C89.1682 16.094 89.5313 16.4533 89.9793 16.4533Z" fill="#0C0C0C"/>
<path d="M97.2244 16.3034C97.6723 16.3034 98.0355 15.9441 98.0355 15.5008C98.0355 15.0576 97.6723 14.6982 97.2244 14.6982C96.7765 14.6982 96.4133 15.0576 96.4133 15.5008C96.4133 15.9441 96.7765 16.3034 97.2244 16.3034Z" fill="#0C0C0C"/>
<path d="M106.191 18.492C106.191 18.492 105.696 8.68994 102.707 8.03119C100.717 7.59261 95.8199 10.3098 91.3478 9.38158C89.3899 8.97587 87.5186 9.42297 87.3133 10.3374C87.2314 10.6994 85.6817 7.4881 88.8304 3.58049C91.3366 0.468731 99.4854 -0.405791 103.111 0.694481C113.148 3.74136 108.751 14.9804 108.751 14.9804L108.239 18.3476L106.191 18.492Z" fill="#0C0C0C"/>
<path d="M110.753 10.5882C113.708 10.5882 116.103 8.21796 116.103 5.2941C116.103 2.37025 113.708 0 110.753 0C107.799 0 105.403 2.37025 105.403 5.2941C105.403 8.21796 107.799 10.5882 110.753 10.5882Z" fill="#0C0C0C"/>
<path d="M93.4361 21.4777H93.423C92.7787 21.4598 91.6995 21.3585 91.7125 20.8812C91.7244 20.4857 92.9398 16.2488 93.0771 15.767C93.082 15.7455 93.0913 15.7252 93.1044 15.7073C93.1175 15.6894 93.1342 15.6744 93.1534 15.6631C93.1725 15.6518 93.1938 15.6444 93.2159 15.6415C93.2381 15.6386 93.2605 15.6402 93.282 15.6462C93.3035 15.6522 93.3235 15.6625 93.3409 15.6764C93.3582 15.6903 93.3725 15.7075 93.3829 15.727C93.3933 15.7466 93.3996 15.768 93.4013 15.79C93.4031 15.812 93.4003 15.8342 93.3931 15.8551C92.8538 17.7312 92.0489 20.6217 92.0409 20.8903C92.1002 21.0048 92.7651 21.1342 93.4322 21.153C93.4757 21.1525 93.5177 21.1691 93.5488 21.1992C93.5799 21.2293 93.5977 21.2704 93.5982 21.3134C93.5987 21.3565 93.5819 21.398 93.5515 21.4288C93.5211 21.4596 93.4796 21.4772 93.4361 21.4777Z" fill="#0C0C0C"/>
<path d="M91.4727 12.9235C90.8067 12.7277 90.0995 12.7132 89.4258 12.8816C89.0945 12.9623 88.7773 13.0917 88.4848 13.2655C88.1952 13.4362 87.9285 13.6422 87.691 13.8788C87.6706 13.8969 87.654 13.9188 87.6421 13.9432C87.6303 13.9676 87.6234 13.9941 87.6219 14.0212C87.6204 14.0482 87.6243 14.0753 87.6334 14.1009C87.6424 14.1264 87.6565 14.15 87.6748 14.1702C87.6931 14.1903 87.7152 14.2068 87.7399 14.2185C87.7645 14.2302 87.7913 14.237 87.8187 14.2385C87.846 14.24 87.8734 14.2361 87.8992 14.2272C87.925 14.2182 87.9488 14.2042 87.9692 14.1862L87.982 14.1756C88.2033 13.9781 88.4487 13.809 88.7126 13.6721C88.9725 13.5358 89.2518 13.4392 89.5409 13.3856C90.1115 13.2751 90.7014 13.3156 91.2511 13.503L91.2722 13.5107C91.3502 13.539 91.4364 13.5355 91.5118 13.501C91.5872 13.4664 91.6457 13.4037 91.6743 13.3265C91.703 13.2493 91.6994 13.164 91.6645 13.0893C91.6296 13.0147 91.5662 12.9569 91.4882 12.9285L91.4727 12.9235Z" fill="#0C0C0C"/>
<path d="M96.252 13.5054C96.7807 13.2655 97.3641 13.1681 97.943 13.2233C98.236 13.2489 98.5234 13.3182 98.7956 13.4288C99.0717 13.5397 99.3326 13.6845 99.5722 13.8597L99.5856 13.8685C99.6076 13.8846 99.6326 13.8962 99.6592 13.9027C99.6857 13.9092 99.7133 13.9104 99.7404 13.9064C99.7674 13.9023 99.7934 13.893 99.8168 13.879C99.8403 13.865 99.8607 13.8466 99.8769 13.8248C99.8931 13.803 99.9048 13.7782 99.9114 13.7519C99.918 13.7257 99.9192 13.6984 99.9151 13.6716C99.911 13.6448 99.9016 13.6191 99.8875 13.5959C99.8733 13.5728 99.8547 13.5526 99.8327 13.5365C99.5731 13.3237 99.2875 13.1442 98.9825 13.0022C98.6743 12.8573 98.3459 12.7589 98.0082 12.7104C97.3215 12.6077 96.6196 12.6901 95.9761 12.9488C95.9381 12.9644 95.9036 12.9873 95.8746 13.0161C95.8455 13.0449 95.8224 13.0791 95.8067 13.1167C95.791 13.1544 95.7829 13.1947 95.783 13.2354C95.783 13.2761 95.7911 13.3164 95.8069 13.3541C95.8227 13.3917 95.8458 13.4258 95.8749 13.4546C95.904 13.4834 95.9386 13.5062 95.9766 13.5217C96.0146 13.5373 96.0554 13.5453 96.0966 13.5452C96.1377 13.5452 96.1784 13.5371 96.2164 13.5215L96.2316 13.5151L96.252 13.5054Z" fill="#0C0C0C"/>
<path d="M60.687 35.5433L61.0388 26.9231C61.0465 26.7338 61.0142 26.5449 60.9441 26.3685C60.874 26.1921 60.7675 26.0321 60.6315 25.8986C60.4954 25.7652 60.3328 25.6613 60.1539 25.5934C59.9751 25.5256 59.7839 25.4954 59.5926 25.5047C59.2398 25.5326 58.9101 25.6893 58.6674 25.9442C58.4247 26.1992 58.2864 26.5342 58.2793 26.8844L58.204 28.7338L55.745 22.8118C55.4833 22.1489 54.7334 21.501 54.0012 21.8407C53.7111 21.9534 53.4682 22.1601 53.3119 22.4269C53.1557 22.6938 53.0954 23.0052 53.1409 23.3103C53.134 23.3111 53.1271 23.3126 53.1204 23.3147C53.1154 23.317 53.1118 23.3208 53.1071 23.3235L52.7036 22.3013C52.6288 22.1119 52.5123 21.9414 52.3624 21.8023C52.2126 21.6631 52.0333 21.5588 51.8375 21.4969C51.6418 21.4351 51.4346 21.4172 51.2309 21.4446C51.0273 21.472 50.8325 21.5441 50.6606 21.6555C50.3936 21.8363 50.1974 22.1024 50.105 22.4093C50.0125 22.7161 50.0294 23.0451 50.1527 23.3411L50.3233 23.7785C50.3128 23.7892 50.3044 23.8016 50.2984 23.8152C50.1134 23.548 49.8385 23.3545 49.5226 23.2695C49.2068 23.1845 48.8707 23.2134 48.5745 23.3511C48.2548 23.5112 48.0078 23.7847 47.8829 24.1171C47.7579 24.4494 47.7642 24.8162 47.9005 25.1442L48.3274 26.2245C48.3104 26.2134 48.2911 26.2066 48.2709 26.2044C48.2507 26.2022 48.2303 26.2047 48.2114 26.2118C48.1893 26.2216 48.1706 26.2374 48.1574 26.2573C47.9259 26.0646 47.6368 25.9525 47.3346 25.9382C47.0324 25.924 46.7338 26.0083 46.4848 26.1784C46.2268 26.3621 46.0391 26.6267 45.9521 26.9293C45.8651 27.2318 45.8839 27.5546 46.0054 27.8452L49.6057 36.9621C50.1094 38.2374 50.9865 39.3348 52.1246 40.1137C53.2627 40.8925 54.6099 41.3173 55.9936 41.3335C57.1867 41.3475 58.3382 40.9006 59.2037 40.0878C60.0691 39.275 60.5803 38.1603 60.6285 36.9806L60.687 35.5433Z" fill="#B28B67"/>
<g opacity="0.2">
<path d="M55.5442 29.1823C55.5131 29.194 55.4787 29.1932 55.4482 29.1802C55.4177 29.1671 55.3936 29.1428 55.381 29.1124L53.0499 23.4792C53.0433 23.4639 53.0399 23.4474 53.0398 23.4307C53.0397 23.4141 53.043 23.3976 53.0494 23.3821C53.0558 23.3667 53.0653 23.3527 53.0772 23.341C53.0891 23.3292 53.1033 23.3199 53.1189 23.3136C53.1344 23.3073 53.1511 23.3041 53.168 23.3042C53.1848 23.3043 53.2015 23.3077 53.217 23.3143C53.2324 23.3208 53.2465 23.3303 53.2582 23.3423C53.27 23.3542 53.2792 23.3683 53.2854 23.3838L55.6165 29.017C55.6229 29.0323 55.6261 29.0487 55.626 29.0653C55.626 29.0818 55.6226 29.0982 55.6161 29.1135C55.6097 29.1288 55.6002 29.1426 55.5883 29.1543C55.5764 29.1659 55.5623 29.1751 55.5468 29.1814L55.5442 29.1823Z" fill="#0C0C0C"/>
</g>
<g opacity="0.2">
<path d="M53.062 30.2681C53.0309 30.2798 52.9965 30.2791 52.966 30.266C52.9355 30.2529 52.9114 30.2286 52.8988 30.1982L50.2971 23.9116C50.2908 23.8963 50.2875 23.8799 50.2876 23.8634C50.2877 23.8469 50.291 23.8305 50.2974 23.8153C50.3039 23.8 50.3133 23.7862 50.3252 23.7746C50.337 23.7629 50.3511 23.7537 50.3666 23.7475C50.3979 23.7359 50.4325 23.7366 50.4633 23.7493C50.4942 23.7621 50.519 23.786 50.5327 23.8162L53.1344 30.1028C53.1471 30.1337 53.1469 30.1684 53.1338 30.1993C53.1208 30.2301 53.0959 30.2545 53.0646 30.2672L53.062 30.2681Z" fill="#0C0C0C"/>
</g>
<g opacity="0.2">
<path d="M50.3803 31.4594C50.3493 31.4712 50.3149 31.4704 50.2844 31.4574C50.2539 31.4443 50.2298 31.42 50.2172 31.3896L48.1406 26.3749C48.1342 26.3596 48.131 26.3432 48.1311 26.3267C48.1312 26.3101 48.1346 26.2937 48.141 26.2785C48.1475 26.2632 48.157 26.2493 48.1688 26.2377C48.1807 26.226 48.1948 26.2168 48.2103 26.2105C48.2258 26.2043 48.2424 26.2011 48.2591 26.2012C48.2758 26.2012 48.2924 26.2046 48.3078 26.211C48.3232 26.2174 48.3372 26.2267 48.349 26.2385C48.3608 26.2503 48.3701 26.2642 48.3764 26.2795L50.453 31.2942C50.4658 31.3251 50.4656 31.3597 50.4526 31.3905C50.4396 31.4214 50.4148 31.4458 50.3836 31.4586L50.3803 31.4594Z" fill="#0C0C0C"/>
</g>
<path d="M92.0078 23.2374C93.9524 23.3652 95.8846 22.848 97.4989 21.7675C97.555 21.7308 97.6204 21.7105 97.6877 21.7091C97.7549 21.7076 97.8212 21.725 97.8788 21.7593C97.9365 21.7936 97.9831 21.8433 98.0134 21.9028C98.0436 21.9622 98.0563 22.0289 98.0498 22.0952C97.9202 23.2321 97.3523 25.3223 94.9426 25.5886C93.3866 25.7603 92.2591 24.5778 91.691 23.7917C91.6521 23.7371 91.6297 23.6728 91.6264 23.6062C91.6231 23.5396 91.6389 23.4734 91.6721 23.4153C91.7053 23.3573 91.7545 23.3097 91.8139 23.2782C91.8733 23.2467 91.9406 23.2326 92.0078 23.2374Z" fill="white"/>
<path d="M129.847 46.9528C128.679 43.6679 127.736 42.0298 126.537 40.7343C124.895 38.9612 122.426 37.2154 117.847 36.423C115.05 35.9416 110.834 35.5083 110.834 35.5083C110.834 35.5157 110.833 35.523 110.832 35.5303C110.783 35.9657 109.912 42.6639 101.638 42.7311C90.2366 42.8253 91.0553 35.075 91.031 34.7582C91.0331 34.7521 91.0331 34.748 91.031 34.748C87.494 34.6118 78.675 34.5334 75.1237 37.9713C74.7514 38.3289 74.4085 38.7153 74.0981 39.1267L74.0495 39.0974L65.9089 51.4822L63.8756 35.0368L60.6875 35.5424L50.3401 37.1831L49.742 37.2773L46.0552 37.8644L47.3403 47.7211L50.2852 70.318C53.1589 76.987 57.7184 82.812 63.525 87.2328C65.9279 83.8771 69.9031 78.0883 74.0308 72.021C74.0955 71.9247 74.1604 71.8284 74.2272 71.7321V71.7342C74.2272 71.8002 74.2293 71.8683 74.2313 71.9367C74.2414 72.37 74.2536 72.8615 74.2637 73.4028C74.361 78.3752 74.4604 87.4894 74.5413 93.3002C81.8886 96.0233 89.8541 96.6814 97.556 95.2016C105.258 93.7219 112.396 90.162 118.18 84.916C118.22 84.882 118.259 84.8459 118.298 84.8077C118.375 84.7396 118.452 84.6694 118.527 84.5993C122.484 80.9467 125.708 76.5871 128.029 71.75C130.594 66.4028 131.979 60.5767 132.094 54.6588V54.6568L129.847 46.9528Z" fill="#323232"/>
<path d="M118.525 84.5978C118.451 84.668 118.374 84.7382 118.296 84.8063C118.258 84.8444 118.22 84.8805 118.178 84.9146L115.979 73.8408L115.977 73.8288L112.832 58.0011L113.229 57.8989L118.525 84.5978Z" fill="#0C0C0C"/>
<path d="M74.283 73.403C74.2317 73.4009 74.183 73.3799 74.1467 73.344C74.1103 73.3081 74.0889 73.26 74.0866 73.2093L73.6799 64.3601C73.6787 64.3335 73.6828 64.3069 73.6919 64.2818C73.7011 64.2568 73.7151 64.2338 73.7333 64.2141C73.7514 64.1944 73.7733 64.1784 73.7977 64.1671C73.8221 64.1558 73.8485 64.1494 73.8754 64.1482C73.9023 64.1469 73.9292 64.151 73.9545 64.1601C73.9798 64.1691 74.0031 64.183 74.023 64.201C74.0429 64.219 74.059 64.2406 74.0704 64.2647C74.0818 64.2889 74.0884 64.315 74.0896 64.3416L74.4963 73.1911C74.4975 73.2177 74.4935 73.2442 74.4843 73.2693C74.4751 73.2943 74.4611 73.3173 74.4429 73.337C74.4248 73.3567 74.4029 73.3726 74.3785 73.3839C74.3541 73.3951 74.3277 73.4015 74.3008 73.4027C74.2934 73.403 74.2877 73.4033 74.283 73.403Z" fill="#0C0C0C"/>
</g>
<defs>
<clipPath id="clip0_152_7623">
<rect width="179" height="234" fill="white"/>
</clipPath>
</defs>
</svg>
