<svg width="138" height="132" viewBox="0 0 138 132" fill="none" xmlns="http://www.w3.org/2000/svg">
<g opacity="0.4">
<path d="M133.462 35.2018C133.976 46.3753 128.991 56.5848 120.8 63.4261L109.105 40.2484L132.907 30.4483C133.2 31.9976 133.387 33.5843 133.462 35.2018Z" fill="#F7FCF8"/>
<path d="M98.2765 72.1066C103.616 71.8595 108.64 70.5371 113.13 68.3689L101.106 44.5381L92.0274 25.36L122.773 11.9385C115.717 5.18738 105.816 1.20409 95.037 1.70282C74.7103 2.6433 58.9574 19.1661 59.8519 38.6076C60.0537 42.992 61.0849 47.1504 62.7942 50.951L14.6004 93.1406C5.4071 101.188 5.38759 115.021 14.5582 123.016C23.7288 131.011 38.1305 129.717 45.6633 120.222L85.1521 70.4429C89.2672 71.7202 93.6924 72.3187 98.2765 72.1066ZM86.1397 38.4784L81.5882 45.6953L88.1059 43.2804C88.9224 42.9778 89.8474 43.2041 90.4082 43.8435C90.9689 44.4829 91.0416 45.3943 90.589 46.1119L86.0376 53.3287L92.5552 50.9138L94.0191 54.5646L81.9309 59.0435C81.1143 59.3461 80.1893 59.1198 79.6286 58.4804C79.0678 57.841 78.9951 56.9296 79.4477 56.2121L83.9992 48.9952L77.4815 51.4101C76.665 51.7126 75.74 51.4864 75.1792 50.847C74.6184 50.2076 74.5458 49.2962 74.9983 48.5786L79.5498 41.3617L73.0321 43.7767L71.5682 40.1259L83.6565 35.6469C84.473 35.3444 85.398 35.5707 85.9588 36.2101C86.5196 36.8495 86.5922 37.7609 86.1397 38.4784ZM30.556 114.436C26.0389 114.645 22.216 111.312 22.0172 106.992C21.8184 102.672 25.3191 99.0001 29.8361 98.7911C34.3532 98.5821 38.1761 101.915 38.3749 106.235C38.5737 110.556 35.073 114.227 30.556 114.436Z" fill="#F7FCF8"/>
</g>
<g opacity="0.4">
<path d="M101.744 107.752C101.729 110.462 100.401 112.869 98.3407 114.419L95.809 108.661L101.669 106.595C101.721 106.974 101.746 107.36 101.744 107.752Z" fill="#F7FCF8"/>
<path d="M92.8028 116.23C94.0932 116.238 95.3209 115.983 96.4303 115.516L93.8273 109.596L91.8767 104.839L99.4558 101.987C97.8385 100.263 95.501 99.1722 92.8961 99.1545C87.9838 99.1211 83.9807 102.916 83.955 107.632C83.9491 108.695 84.1461 109.714 84.511 110.656L72.368 120.245C70.0516 122.074 69.8752 125.42 71.9868 127.472C74.0985 129.524 77.5867 129.396 79.5207 127.195L89.6592 115.659C90.6355 116.021 91.695 116.222 92.8028 116.23ZM90.2943 107.938L89.1074 109.625L90.7087 109.125C90.9093 109.062 91.1295 109.129 91.2568 109.291C91.384 109.453 91.3902 109.674 91.2722 109.842L90.0853 111.529L91.6866 111.029L91.9942 111.931L89.0242 112.859C88.8236 112.922 88.6034 112.855 88.4761 112.694C88.3489 112.532 88.3427 112.31 88.4607 112.142L89.6476 110.455L88.0463 110.955C87.8457 111.018 87.6255 110.952 87.4982 110.79C87.371 110.628 87.3648 110.406 87.4828 110.238L88.6697 108.551L87.0684 109.051L86.7608 108.149L89.7308 107.221C89.9314 107.158 90.1516 107.225 90.2789 107.387C90.4061 107.549 90.4123 107.77 90.2943 107.938ZM75.9503 125.602C74.8587 125.594 73.9784 124.739 73.9841 123.691C73.9898 122.643 74.8794 121.8 75.971 121.807C77.0626 121.815 77.9429 122.67 77.9372 123.718C77.9315 124.766 77.0419 125.609 75.9503 125.602Z" fill="#F7FCF8"/>
</g>
</svg>
