<svg width="328" height="39" viewBox="0 0 328 39" fill="none" xmlns="http://www.w3.org/2000/svg">
<rect width="328" height="39" rx="10" fill="#0A7E54"/>
<path d="M108.278 25V14.5H112.703C113.823 14.5 114.808 14.72 115.658 15.16C116.518 15.6 117.183 16.215 117.653 17.005C118.133 17.795 118.373 18.71 118.373 19.75C118.373 20.79 118.133 21.705 117.653 22.495C117.183 23.285 116.518 23.9 115.658 24.34C114.808 24.78 113.823 25 112.703 25H108.278ZM109.778 23.695H112.613C113.483 23.695 114.233 23.53 114.863 23.2C115.503 22.87 115.998 22.41 116.348 21.82C116.698 21.22 116.873 20.53 116.873 19.75C116.873 18.96 116.698 18.27 116.348 17.68C115.998 17.09 115.503 16.63 114.863 16.3C114.233 15.97 113.483 15.805 112.613 15.805H109.778V23.695ZM124 25.09C123.15 25.09 122.4 24.915 121.75 24.565C121.11 24.215 120.61 23.735 120.25 23.125C119.9 22.515 119.725 21.815 119.725 21.025C119.725 20.235 119.895 19.535 120.235 18.925C120.585 18.315 121.06 17.84 121.66 17.5C122.27 17.15 122.955 16.975 123.715 16.975C124.485 16.975 125.165 17.145 125.755 17.485C126.345 17.825 126.805 18.305 127.135 18.925C127.475 19.535 127.645 20.25 127.645 21.07C127.645 21.13 127.64 21.2 127.63 21.28C127.63 21.36 127.625 21.435 127.615 21.505H120.85V20.47H126.865L126.28 20.83C126.29 20.32 126.185 19.865 125.965 19.465C125.745 19.065 125.44 18.755 125.05 18.535C124.67 18.305 124.225 18.19 123.715 18.19C123.215 18.19 122.77 18.305 122.38 18.535C121.99 18.755 121.685 19.07 121.465 19.48C121.245 19.88 121.135 20.34 121.135 20.86V21.1C121.135 21.63 121.255 22.105 121.495 22.525C121.745 22.935 122.09 23.255 122.53 23.485C122.97 23.715 123.475 23.83 124.045 23.83C124.515 23.83 124.94 23.75 125.32 23.59C125.71 23.43 126.05 23.19 126.34 22.87L127.135 23.8C126.775 24.22 126.325 24.54 125.785 24.76C125.255 24.98 124.66 25.09 124 25.09ZM131.925 25.09C131.265 25.09 130.635 25 130.035 24.82C129.445 24.64 128.98 24.42 128.64 24.16L129.24 23.02C129.58 23.25 130 23.445 130.5 23.605C131 23.765 131.51 23.845 132.03 23.845C132.7 23.845 133.18 23.75 133.47 23.56C133.77 23.37 133.92 23.105 133.92 22.765C133.92 22.515 133.83 22.32 133.65 22.18C133.47 22.04 133.23 21.935 132.93 21.865C132.64 21.795 132.315 21.735 131.955 21.685C131.595 21.625 131.235 21.555 130.875 21.475C130.515 21.385 130.185 21.265 129.885 21.115C129.585 20.955 129.345 20.74 129.165 20.47C128.985 20.19 128.895 19.82 128.895 19.36C128.895 18.88 129.03 18.46 129.3 18.1C129.57 17.74 129.95 17.465 130.44 17.275C130.94 17.075 131.53 16.975 132.21 16.975C132.73 16.975 133.255 17.04 133.785 17.17C134.325 17.29 134.765 17.465 135.105 17.695L134.49 18.835C134.13 18.595 133.755 18.43 133.365 18.34C132.975 18.25 132.585 18.205 132.195 18.205C131.565 18.205 131.095 18.31 130.785 18.52C130.475 18.72 130.32 18.98 130.32 19.3C130.32 19.57 130.41 19.78 130.59 19.93C130.78 20.07 131.02 20.18 131.31 20.26C131.61 20.34 131.94 20.41 132.3 20.47C132.66 20.52 133.02 20.59 133.38 20.68C133.74 20.76 134.065 20.875 134.355 21.025C134.655 21.175 134.895 21.385 135.075 21.655C135.265 21.925 135.36 22.285 135.36 22.735C135.36 23.215 135.22 23.63 134.94 23.98C134.66 24.33 134.265 24.605 133.755 24.805C133.245 24.995 132.635 25.09 131.925 25.09ZM140.624 25.09C139.814 25.09 139.089 24.915 138.449 24.565C137.819 24.215 137.324 23.735 136.964 23.125C136.604 22.515 136.424 21.815 136.424 21.025C136.424 20.235 136.604 19.535 136.964 18.925C137.324 18.315 137.819 17.84 138.449 17.5C139.089 17.15 139.814 16.975 140.624 16.975C141.344 16.975 141.984 17.12 142.544 17.41C143.114 17.69 143.554 18.11 143.864 18.67L142.769 19.375C142.509 18.985 142.189 18.7 141.809 18.52C141.439 18.33 141.039 18.235 140.609 18.235C140.089 18.235 139.624 18.35 139.214 18.58C138.804 18.81 138.479 19.135 138.239 19.555C137.999 19.965 137.879 20.455 137.879 21.025C137.879 21.595 137.999 22.09 138.239 22.51C138.479 22.93 138.804 23.255 139.214 23.485C139.624 23.715 140.089 23.83 140.609 23.83C141.039 23.83 141.439 23.74 141.809 23.56C142.189 23.37 142.509 23.08 142.769 22.69L143.864 23.38C143.554 23.93 143.114 24.355 142.544 24.655C141.984 24.945 141.344 25.09 140.624 25.09ZM150.664 25V23.32L150.589 23.005V20.14C150.589 19.53 150.409 19.06 150.049 18.73C149.699 18.39 149.169 18.22 148.459 18.22C147.989 18.22 147.529 18.3 147.079 18.46C146.629 18.61 146.249 18.815 145.939 19.075L145.339 17.995C145.749 17.665 146.239 17.415 146.809 17.245C147.389 17.065 147.994 16.975 148.624 16.975C149.714 16.975 150.554 17.24 151.144 17.77C151.734 18.3 152.029 19.11 152.029 20.2V25H150.664ZM148.054 25.09C147.464 25.09 146.944 24.99 146.494 24.79C146.054 24.59 145.714 24.315 145.474 23.965C145.234 23.605 145.114 23.2 145.114 22.75C145.114 22.32 145.214 21.93 145.414 21.58C145.624 21.23 145.959 20.95 146.419 20.74C146.889 20.53 147.519 20.425 148.309 20.425H150.829V21.46H148.369C147.649 21.46 147.164 21.58 146.914 21.82C146.664 22.06 146.539 22.35 146.539 22.69C146.539 23.08 146.694 23.395 147.004 23.635C147.314 23.865 147.744 23.98 148.294 23.98C148.834 23.98 149.304 23.86 149.704 23.62C150.114 23.38 150.409 23.03 150.589 22.57L150.874 23.56C150.684 24.03 150.349 24.405 149.869 24.685C149.389 24.955 148.784 25.09 148.054 25.09ZM154.694 25V17.05H156.074V19.21L155.939 18.67C156.159 18.12 156.529 17.7 157.049 17.41C157.569 17.12 158.209 16.975 158.969 16.975V18.37C158.909 18.36 158.849 18.355 158.789 18.355C158.739 18.355 158.689 18.355 158.639 18.355C157.869 18.355 157.259 18.585 156.809 19.045C156.359 19.505 156.134 20.17 156.134 21.04V25H154.694ZM164.15 28C163.42 28 162.71 27.895 162.02 27.685C161.34 27.485 160.785 27.195 160.355 26.815L161.045 25.705C161.415 26.025 161.87 26.275 162.41 26.455C162.95 26.645 163.515 26.74 164.105 26.74C165.045 26.74 165.735 26.52 166.175 26.08C166.615 25.64 166.835 24.97 166.835 24.07V22.39L166.985 20.815L166.91 19.225V17.05H168.275V23.92C168.275 25.32 167.925 26.35 167.225 27.01C166.525 27.67 165.5 28 164.15 28ZM163.97 24.67C163.2 24.67 162.51 24.51 161.9 24.19C161.3 23.86 160.82 23.405 160.46 22.825C160.11 22.245 159.935 21.575 159.935 20.815C159.935 20.045 160.11 19.375 160.46 18.805C160.82 18.225 161.3 17.775 161.9 17.455C162.51 17.135 163.2 16.975 163.97 16.975C164.65 16.975 165.27 17.115 165.83 17.395C166.39 17.665 166.835 18.085 167.165 18.655C167.505 19.225 167.675 19.945 167.675 20.815C167.675 21.675 167.505 22.39 167.165 22.96C166.835 23.53 166.39 23.96 165.83 24.25C165.27 24.53 164.65 24.67 163.97 24.67ZM164.135 23.41C164.665 23.41 165.135 23.3 165.545 23.08C165.955 22.86 166.275 22.555 166.505 22.165C166.745 21.775 166.865 21.325 166.865 20.815C166.865 20.305 166.745 19.855 166.505 19.465C166.275 19.075 165.955 18.775 165.545 18.565C165.135 18.345 164.665 18.235 164.135 18.235C163.605 18.235 163.13 18.345 162.71 18.565C162.3 18.775 161.975 19.075 161.735 19.465C161.505 19.855 161.39 20.305 161.39 20.815C161.39 21.325 161.505 21.775 161.735 22.165C161.975 22.555 162.3 22.86 162.71 23.08C163.13 23.3 163.605 23.41 164.135 23.41ZM175.962 25V23.32L175.887 23.005V20.14C175.887 19.53 175.707 19.06 175.347 18.73C174.997 18.39 174.467 18.22 173.757 18.22C173.287 18.22 172.827 18.3 172.377 18.46C171.927 18.61 171.547 18.815 171.237 19.075L170.637 17.995C171.047 17.665 171.537 17.415 172.107 17.245C172.687 17.065 173.292 16.975 173.922 16.975C175.012 16.975 175.852 17.24 176.442 17.77C177.032 18.3 177.327 19.11 177.327 20.2V25H175.962ZM173.352 25.09C172.762 25.09 172.242 24.99 171.792 24.79C171.352 24.59 171.012 24.315 170.772 23.965C170.532 23.605 170.412 23.2 170.412 22.75C170.412 22.32 170.512 21.93 170.712 21.58C170.922 21.23 171.257 20.95 171.717 20.74C172.187 20.53 172.817 20.425 173.607 20.425H176.127V21.46H173.667C172.947 21.46 172.462 21.58 172.212 21.82C171.962 22.06 171.837 22.35 171.837 22.69C171.837 23.08 171.992 23.395 172.302 23.635C172.612 23.865 173.042 23.98 173.592 23.98C174.132 23.98 174.602 23.86 175.002 23.62C175.412 23.38 175.707 23.03 175.887 22.57L176.172 23.56C175.982 24.03 175.647 24.405 175.167 24.685C174.687 24.955 174.082 25.09 173.352 25.09ZM179.991 25V17.05H181.371V19.21L181.236 18.67C181.456 18.12 181.826 17.7 182.346 17.41C182.866 17.12 183.506 16.975 184.266 16.975V18.37C184.206 18.36 184.146 18.355 184.086 18.355C184.036 18.355 183.986 18.355 183.936 18.355C183.166 18.355 182.556 18.585 182.106 19.045C181.656 19.505 181.431 20.17 181.431 21.04V25H179.991ZM188.792 25L193.547 14.5H195.032L199.802 25H198.227L193.982 15.34H194.582L190.337 25H188.792ZM190.817 22.375L191.222 21.175H197.132L197.567 22.375H190.817ZM201.368 25V14.5H205.463C206.383 14.5 207.168 14.645 207.818 14.935C208.468 15.225 208.968 15.645 209.318 16.195C209.668 16.745 209.843 17.4 209.843 18.16C209.843 18.92 209.668 19.575 209.318 20.125C208.968 20.665 208.468 21.085 207.818 21.385C207.168 21.675 206.383 21.82 205.463 21.82H202.193L202.868 21.115V25H201.368ZM202.868 21.265L202.193 20.515H205.418C206.378 20.515 207.103 20.31 207.593 19.9C208.093 19.49 208.343 18.91 208.343 18.16C208.343 17.41 208.093 16.83 207.593 16.42C207.103 16.01 206.378 15.805 205.418 15.805H202.193L202.868 15.055V21.265ZM212.047 25V14.5H216.142C217.062 14.5 217.847 14.645 218.497 14.935C219.147 15.225 219.647 15.645 219.997 16.195C220.347 16.745 220.522 17.4 220.522 18.16C220.522 18.92 220.347 19.575 219.997 20.125C219.647 20.665 219.147 21.085 218.497 21.385C217.847 21.675 217.062 21.82 216.142 21.82H212.872L213.547 21.115V25H212.047ZM213.547 21.265L212.872 20.515H216.097C217.057 20.515 217.782 20.31 218.272 19.9C218.772 19.49 219.022 18.91 219.022 18.16C219.022 17.41 218.772 16.83 218.272 16.42C217.782 16.01 217.057 15.805 216.097 15.805H212.872L213.547 15.055V21.265Z" fill="white"/>
</svg>
