<svg width="170" height="165" viewBox="0 0 170 165" fill="none" xmlns="http://www.w3.org/2000/svg">
<path d="M71.2359 83.9301C71.8653 83.0137 71.8255 81.8104 71.1367 80.9351C70.4479 80.0598 69.2623 79.7059 68.1858 80.0542L52.2483 85.2104L53.9282 90.1021L62.5213 87.322L56.1906 96.5387C55.5612 97.4551 55.601 98.6584 56.2898 99.5337C56.9786 100.409 58.1642 100.763 59.2407 100.415L67.8338 97.6345L61.5031 106.851C60.8737 107.768 60.9135 108.971 61.6023 109.846C62.2911 110.721 63.4767 111.075 64.5532 110.727L80.4907 105.571L78.8108 100.679L70.2177 103.459L76.5484 94.2426C77.1778 93.3262 77.138 92.1229 76.4492 91.2476C75.7604 90.3723 74.5748 90.0184 73.4983 90.3667L64.9052 93.1468L71.2359 83.9301Z" fill="#F7FCF8"/>
<path d="M85 165C131.944 165 170 128.063 170 82.5C170 36.9365 131.944 0 85 0C38.0558 0 0 36.9365 0 82.5C0 128.063 38.0558 165 85 165ZM19.1035 116.003L40.2287 98.9167C38.2395 93.8131 37.1508 88.2799 37.1508 82.5C37.1508 56.8705 58.5571 36.0938 84.9633 36.0938C98.9662 36.0938 111.563 41.9363 120.307 51.2469L79.6508 67.0312L90.2758 92.8125L104.441 124.893C98.492 127.472 91.9002 128.906 84.9633 128.906C79.0082 128.906 73.3074 127.85 68.049 125.919L50.4346 146.435C37.0774 139.618 26.1177 128.973 19.1035 116.003ZM132.776 82.5C132.776 97.2299 125.705 110.357 114.678 118.858L100.901 87.6562L132.341 76.213C132.628 78.269 132.776 80.3677 132.776 82.5Z" fill="#F7FCF8"/>
</svg>
