<svg width="86" height="35" viewBox="0 0 86 35" fill="none" xmlns="http://www.w3.org/2000/svg">
<path d="M42.028 14.146C41.916 14.0153 41.7667 13.8893 41.58 13.768C41.3933 13.6467 41.1833 13.5393 40.95 13.446C40.7167 13.3433 40.46 13.264 40.18 13.208C39.9093 13.1427 39.6247 13.11 39.326 13.11C38.5607 13.11 37.996 13.2547 37.632 13.544C37.268 13.8333 37.086 14.23 37.086 14.734C37.086 15.0887 37.1793 15.3687 37.366 15.574C37.5527 15.7793 37.8373 15.9473 38.22 16.078C38.612 16.2087 39.1067 16.344 39.704 16.484C40.3947 16.6333 40.992 16.8153 41.496 17.03C42 17.2447 42.3873 17.534 42.658 17.898C42.9287 18.2527 43.064 18.7287 43.064 19.326C43.064 19.802 42.9707 20.2173 42.784 20.572C42.6067 20.9173 42.3547 21.2067 42.028 21.44C41.7013 21.664 41.3187 21.832 40.88 21.944C40.4413 22.0467 39.9653 22.098 39.452 22.098C38.948 22.098 38.4533 22.0467 37.968 21.944C37.492 21.832 37.0393 21.6733 36.61 21.468C36.1807 21.2627 35.7793 21.006 35.406 20.698L36.008 19.634C36.1573 19.7927 36.3487 19.9513 36.582 20.11C36.8247 20.2593 37.0953 20.3993 37.394 20.53C37.702 20.6607 38.0333 20.768 38.388 20.852C38.7427 20.9267 39.1067 20.964 39.48 20.964C40.1893 20.964 40.74 20.838 41.132 20.586C41.524 20.3247 41.72 19.9467 41.72 19.452C41.72 19.0787 41.608 18.78 41.384 18.556C41.1693 18.332 40.8473 18.1453 40.418 17.996C39.9887 17.8467 39.466 17.6973 38.85 17.548C38.178 17.38 37.6133 17.198 37.156 17.002C36.6987 16.7967 36.3533 16.5307 36.12 16.204C35.896 15.8773 35.784 15.4527 35.784 14.93C35.784 14.2953 35.938 13.7587 36.246 13.32C36.554 12.8813 36.9787 12.55 37.52 12.326C38.0613 12.102 38.6727 11.99 39.354 11.99C39.802 11.99 40.2173 12.0367 40.6 12.13C40.992 12.2233 41.356 12.354 41.692 12.522C42.028 12.69 42.336 12.8907 42.616 13.124L42.028 14.146ZM48.2593 22.14C47.7086 22.14 47.2046 22.042 46.7473 21.846C46.2993 21.6407 45.9073 21.3653 45.5713 21.02C45.2446 20.6653 44.9879 20.2593 44.8013 19.802C44.6239 19.3447 44.5353 18.8593 44.5353 18.346C44.5353 17.6553 44.6939 17.0253 45.0113 16.456C45.3286 15.8867 45.7673 15.4293 46.3273 15.084C46.8966 14.7387 47.5453 14.566 48.2733 14.566C49.0106 14.566 49.6499 14.7433 50.1913 15.098C50.7419 15.4433 51.1666 15.9007 51.4653 16.47C51.7733 17.03 51.9273 17.6367 51.9273 18.29C51.9273 18.3833 51.9226 18.4767 51.9133 18.57C51.9133 18.654 51.9086 18.7193 51.8993 18.766H45.8373C45.8746 19.242 46.0053 19.6667 46.2293 20.04C46.4626 20.404 46.7613 20.6933 47.1253 20.908C47.4893 21.1133 47.8813 21.216 48.3013 21.216C48.7493 21.216 49.1693 21.104 49.5613 20.88C49.9626 20.656 50.2379 20.362 50.3873 19.998L51.4513 20.292C51.2926 20.6467 51.0546 20.964 50.7373 21.244C50.4293 21.524 50.0606 21.7433 49.6313 21.902C49.2113 22.0607 48.7539 22.14 48.2593 22.14ZM45.7953 17.912H50.7793C50.7419 17.436 50.6066 17.016 50.3733 16.652C50.1399 16.288 49.8413 16.0033 49.4773 15.798C49.1133 15.5927 48.7119 15.49 48.2733 15.49C47.8439 15.49 47.4473 15.5927 47.0833 15.798C46.7193 16.0033 46.4206 16.288 46.1873 16.652C45.9633 17.016 45.8326 17.436 45.7953 17.912ZM57.6607 15.77C57.0447 15.7793 56.4987 15.938 56.0227 16.246C55.5561 16.5447 55.2247 16.96 55.0287 17.492V22H53.7967V14.692H54.9447V16.386C55.1967 15.882 55.5281 15.476 55.9387 15.168C56.3587 14.8507 56.7974 14.6733 57.2547 14.636C57.3481 14.636 57.4274 14.636 57.4927 14.636C57.5581 14.636 57.6141 14.6407 57.6607 14.65V15.77ZM61.4827 22L58.6127 14.692H59.9007L62.1967 20.824L64.4927 14.692H65.6967L62.8267 22H61.4827ZM67.4295 22V14.692H68.6615V22H67.4295ZM67.4295 13.32V11.78H68.6615V13.32H67.4295ZM71.5481 22V15.658H70.5541V14.692H71.5481V14.538C71.5481 13.9407 71.6368 13.4273 71.8141 12.998C72.0008 12.5593 72.2621 12.2233 72.5981 11.99C72.9341 11.7567 73.3308 11.64 73.7881 11.64C74.0774 11.64 74.3621 11.682 74.6421 11.766C74.9221 11.8407 75.1741 11.948 75.3981 12.088L75.0901 12.998C74.9594 12.9047 74.7961 12.83 74.6001 12.774C74.4134 12.718 74.2268 12.69 74.0401 12.69C73.6388 12.69 73.3261 12.8487 73.1021 13.166C72.8874 13.474 72.7801 13.9173 72.7801 14.496V14.692H74.7261V15.658H72.7801V22H71.5481ZM76.7909 23.988C76.9123 23.9973 77.0336 24.0067 77.1549 24.016C77.2763 24.0347 77.3696 24.044 77.4349 24.044C77.5843 24.044 77.7149 23.9927 77.8269 23.89C77.9389 23.7873 78.0603 23.5867 78.1909 23.288C78.3309 22.9987 78.5083 22.5693 78.7229 22L75.6289 14.692H76.9309L79.3949 20.754L81.6209 14.692H82.8389L79.2829 23.918C79.1989 24.1327 79.0729 24.3333 78.9049 24.52C78.7463 24.716 78.5409 24.87 78.2889 24.982C78.0369 25.094 77.7336 25.15 77.3789 25.15C77.2949 25.15 77.2063 25.1453 77.1129 25.136C77.0289 25.1267 76.9216 25.108 76.7909 25.08V23.988ZM83.4878 22V20.432H84.5238V22H83.4878Z" fill="#061510"/>
<path d="M10.4759 17.7167C10.5684 17.5778 10.5626 17.3955 10.4613 17.2629C10.36 17.1303 10.1856 17.0766 10.0273 17.1294L7.68357 17.9107L7.93062 18.6518L9.19431 18.2306L8.26333 19.6271C8.17076 19.7659 8.17662 19.9482 8.27792 20.0809C8.37921 20.2135 8.55356 20.2671 8.71187 20.2143L9.97556 19.7931L9.04458 21.1896C8.95201 21.3284 8.95787 21.5107 9.05917 21.6434C9.16046 21.776 9.33481 21.8296 9.49312 21.7768L11.8369 20.9956L11.5898 20.2544L10.3261 20.6756L11.2571 19.2792C11.3497 19.1403 11.3438 18.958 11.2425 18.8254C11.1412 18.6928 10.9669 18.6391 10.8086 18.6919L9.54489 19.1131L10.4759 17.7167Z" fill="#061510"/>
<path d="M12.5 30C19.4036 30 25 24.4036 25 17.5C25 10.5964 19.4036 5 12.5 5C5.59644 5 0 10.5964 0 17.5C0 24.4036 5.59644 30 12.5 30ZM2.80933 22.5763L5.91599 19.9874C5.62345 19.2141 5.46335 18.3757 5.46335 17.5C5.46335 13.6167 8.61135 10.4688 12.4946 10.4688C14.5538 10.4688 16.4063 11.354 17.6923 12.7647L11.7133 15.1562L13.2758 19.0625L15.359 23.9232C14.4841 24.314 13.5147 24.5312 12.4946 24.5312C11.6189 24.5312 10.7805 24.3711 10.0072 24.0786L7.41685 27.187C5.45256 26.1542 3.84084 24.5414 2.80933 22.5763ZM19.5258 17.5C19.5258 19.7318 18.486 21.7207 16.8644 23.0088L14.8383 18.2812L19.4619 16.5474C19.5041 16.8589 19.5258 17.1769 19.5258 17.5Z" fill="#061510"/>
</svg>
