<svg width="50" height="15" viewBox="0 0 50 15" fill="none" xmlns="http://www.w3.org/2000/svg">
<path d="M7.028 3.146C6.916 3.01533 6.76667 2.88933 6.58 2.768C6.39333 2.64667 6.18333 2.53933 5.95 2.446C5.71667 2.34333 5.46 2.264 5.18 2.208C4.90933 2.14267 4.62467 2.11 4.326 2.11C3.56067 2.11 2.996 2.25467 2.632 2.544C2.268 2.83333 2.086 3.23 2.086 3.734C2.086 4.08867 2.17933 4.36867 2.366 4.574C2.55267 4.77933 2.83733 4.94733 3.22 5.078C3.612 5.20867 4.10667 5.344 4.704 5.484C5.39467 5.63333 5.992 5.81533 6.496 6.03C7 6.24467 7.38733 6.534 7.658 6.898C7.92867 7.25267 8.064 7.72867 8.064 8.326C8.064 8.802 7.97067 9.21733 7.784 9.572C7.60667 9.91733 7.35467 10.2067 7.028 10.44C6.70133 10.664 6.31867 10.832 5.88 10.944C5.44133 11.0467 4.96533 11.098 4.452 11.098C3.948 11.098 3.45333 11.0467 2.968 10.944C2.492 10.832 2.03933 10.6733 1.61 10.468C1.18067 10.2627 0.779333 10.006 0.406 9.698L1.008 8.634C1.15733 8.79267 1.34867 8.95133 1.582 9.11C1.82467 9.25933 2.09533 9.39933 2.394 9.53C2.702 9.66067 3.03333 9.768 3.388 9.852C3.74267 9.92667 4.10667 9.964 4.48 9.964C5.18933 9.964 5.74 9.838 6.132 9.586C6.524 9.32467 6.72 8.94667 6.72 8.452C6.72 8.07867 6.608 7.78 6.384 7.556C6.16933 7.332 5.84733 7.14533 5.418 6.996C4.98867 6.84667 4.466 6.69733 3.85 6.548C3.178 6.38 2.61333 6.198 2.156 6.002C1.69867 5.79667 1.35333 5.53067 1.12 5.204C0.896 4.87733 0.784 4.45267 0.784 3.93C0.784 3.29533 0.938 2.75867 1.246 2.32C1.554 1.88133 1.97867 1.55 2.52 1.326C3.06133 1.102 3.67267 0.99 4.354 0.99C4.802 0.99 5.21733 1.03667 5.6 1.13C5.992 1.22333 6.356 1.354 6.692 1.522C7.028 1.69 7.336 1.89067 7.616 2.124L7.028 3.146ZM13.2593 11.14C12.7086 11.14 12.2046 11.042 11.7473 10.846C11.2993 10.6407 10.9073 10.3653 10.5713 10.02C10.2446 9.66533 9.98792 9.25933 9.80125 8.802C9.62392 8.34467 9.53525 7.85933 9.53525 7.346C9.53525 6.65533 9.69392 6.02533 10.0113 5.456C10.3286 4.88667 10.7673 4.42933 11.3273 4.084C11.8966 3.73867 12.5453 3.566 13.2733 3.566C14.0106 3.566 14.6499 3.74333 15.1913 4.098C15.7419 4.44333 16.1666 4.90067 16.4653 5.47C16.7733 6.03 16.9273 6.63667 16.9273 7.29C16.9273 7.38333 16.9226 7.47667 16.9133 7.57C16.9133 7.654 16.9086 7.71933 16.8993 7.766H10.8373C10.8746 8.242 11.0053 8.66667 11.2293 9.04C11.4626 9.404 11.7613 9.69333 12.1253 9.908C12.4893 10.1133 12.8813 10.216 13.3013 10.216C13.7493 10.216 14.1693 10.104 14.5613 9.88C14.9626 9.656 15.2379 9.362 15.3873 8.998L16.4513 9.292C16.2926 9.64667 16.0546 9.964 15.7373 10.244C15.4293 10.524 15.0606 10.7433 14.6313 10.902C14.2113 11.0607 13.7539 11.14 13.2593 11.14ZM10.7953 6.912H15.7793C15.7419 6.436 15.6066 6.016 15.3733 5.652C15.1399 5.288 14.8413 5.00333 14.4773 4.798C14.1133 4.59267 13.7119 4.49 13.2733 4.49C12.8439 4.49 12.4473 4.59267 12.0833 4.798C11.7193 5.00333 11.4206 5.288 11.1873 5.652C10.9633 6.016 10.8326 6.436 10.7953 6.912ZM22.6607 4.77C22.0447 4.77933 21.4987 4.938 21.0227 5.246C20.5561 5.54467 20.2247 5.96 20.0287 6.492V11H18.7967V3.692H19.9447V5.386C20.1967 4.882 20.5281 4.476 20.9387 4.168C21.3587 3.85067 21.7974 3.67333 22.2547 3.636C22.3481 3.636 22.4274 3.636 22.4927 3.636C22.5581 3.636 22.6141 3.64067 22.6607 3.65V4.77ZM26.4827 11L23.6127 3.692H24.9007L27.1967 9.824L29.4927 3.692H30.6967L27.8267 11H26.4827ZM32.4295 11V3.692H33.6615V11H32.4295ZM32.4295 2.32V0.78H33.6615V2.32H32.4295ZM36.5481 11V4.658H35.5541V3.692H36.5481V3.538C36.5481 2.94067 36.6368 2.42733 36.8141 1.998C37.0008 1.55933 37.2621 1.22333 37.5981 0.99C37.9341 0.756666 38.3308 0.64 38.7881 0.64C39.0774 0.64 39.3621 0.682 39.6421 0.766C39.9221 0.840666 40.1741 0.948 40.3981 1.088L40.0901 1.998C39.9594 1.90467 39.7961 1.83 39.6001 1.774C39.4134 1.718 39.2268 1.69 39.0401 1.69C38.6388 1.69 38.3261 1.84867 38.1021 2.166C37.8874 2.474 37.7801 2.91733 37.7801 3.496V3.692H39.7261V4.658H37.7801V11H36.5481ZM41.7909 12.988C41.9123 12.9973 42.0336 13.0067 42.1549 13.016C42.2763 13.0347 42.3696 13.044 42.4349 13.044C42.5843 13.044 42.7149 12.9927 42.8269 12.89C42.9389 12.7873 43.0603 12.5867 43.1909 12.288C43.3309 11.9987 43.5083 11.5693 43.7229 11L40.6289 3.692H41.9309L44.3949 9.754L46.6209 3.692H47.8389L44.2829 12.918C44.1989 13.1327 44.0729 13.3333 43.9049 13.52C43.7463 13.716 43.5409 13.87 43.2889 13.982C43.0369 14.094 42.7336 14.15 42.3789 14.15C42.2949 14.15 42.2063 14.1453 42.1129 14.136C42.0289 14.1267 41.9216 14.108 41.7909 14.08V12.988ZM48.4878 11V9.432H49.5238V11H48.4878Z" fill="#0A7E54"/>
</svg>
