<svg width="254" height="221" viewBox="0 0 254 221" fill="none" xmlns="http://www.w3.org/2000/svg">
<g clip-path="url(#clip0_154_4190)">
<path opacity="0.8" d="M127.456 148.42C128.087 148.618 128.718 148.78 129.351 148.925C127.588 152.004 126.735 155.561 126.9 159.147C127.064 162.733 128.238 166.188 130.275 169.076C132.311 171.964 135.118 174.157 138.342 175.377C141.566 176.597 145.063 176.79 148.391 175.931C149.436 178.108 150.94 180.007 152.789 181.485C154.639 182.963 156.784 183.981 159.065 184.462C161.345 184.942 163.7 184.874 165.951 184.261C168.202 183.648 170.291 182.507 172.059 180.923C174.408 184.99 178.14 187.974 182.505 189.277C186.869 190.579 191.543 190.102 195.585 187.942C199.628 185.782 202.74 182.1 204.296 177.635C205.852 173.169 205.736 168.253 203.972 163.874C204.504 164.084 205.046 164.283 205.601 164.457C209.191 165.586 212.976 165.86 216.68 165.259C220.385 164.658 223.914 163.198 227.009 160.984C230.105 158.771 232.689 155.86 234.572 152.466C236.456 149.072 237.591 145.279 237.894 141.366C238.197 137.453 237.662 133.519 236.326 129.851C234.991 126.183 232.889 122.874 230.175 120.166C227.461 117.458 224.203 115.42 220.64 114.201C217.077 112.982 213.298 112.613 209.582 113.12C209.098 109.159 207.633 105.399 205.332 102.214C203.031 99.0294 199.974 96.5307 196.466 94.9662C192.957 93.4018 189.119 92.8261 185.332 93.2965C181.546 93.7668 177.943 95.2667 174.881 97.6472C170.785 94.6802 165.801 93.3688 160.852 93.9558C155.903 94.5428 151.326 96.9885 147.967 100.84C144.925 98.8568 141.514 97.5775 137.961 97.0878C134.409 96.598 130.798 96.909 127.37 97.9999C123.942 99.0908 120.776 100.936 118.084 103.413C115.392 105.89 113.237 108.94 111.763 112.361C110.288 115.781 109.529 119.491 109.535 123.244C109.542 126.996 110.313 130.704 111.799 134.119C113.285 137.534 115.451 140.576 118.151 143.043C120.851 145.51 124.023 147.344 127.455 148.422L127.456 148.42Z" fill="#0A7E54"/>
<path opacity="0.8" d="M129.285 25.0807C128.626 25.0807 127.976 25.1158 127.331 25.1664C128.175 21.6866 128.016 18.0231 126.875 14.6376C125.734 11.252 123.661 8.29606 120.919 6.14221C118.176 3.98836 114.886 2.73305 111.464 2.53449C108.041 2.33593 104.639 3.20302 101.686 5.02646C100.088 3.25614 98.1263 1.88971 95.9497 1.03057C93.7731 0.171439 91.4385 -0.157885 89.1224 0.0675238C86.8064 0.292933 84.5696 1.06717 82.5814 2.33164C80.5933 3.59611 78.9058 5.31767 77.6467 7.36605C74.2809 4.178 69.8876 2.44261 65.35 2.50877C60.8124 2.57493 56.4669 4.43773 53.1872 7.72268C49.9075 11.0076 47.9367 15.4712 47.671 20.2159C47.4053 24.9607 48.8644 29.6349 51.755 33.2989C51.1859 33.2585 50.6136 33.2307 50.0355 33.2307C46.2876 33.2302 42.587 34.1073 39.2044 35.7977C35.8218 37.4881 32.8429 39.9491 30.4854 43.0007C28.1279 46.0523 26.4516 49.6172 25.5791 53.4347C24.7065 57.2522 24.6599 61.2257 25.4424 65.0646C26.225 68.9034 27.817 72.5104 30.1021 75.6218C32.3871 78.7332 35.3074 81.2703 38.6492 83.0474C41.991 84.8245 45.6699 85.7967 49.4167 85.8928C53.1634 85.989 56.8833 85.2067 60.3042 83.6031C61.8542 87.2521 64.2889 90.4127 67.3663 92.7709C70.4438 95.1291 74.0568 96.6029 77.8465 97.0458C81.6361 97.4887 85.4705 96.8852 88.9685 95.2954C92.4666 93.7056 95.5065 91.1848 97.7863 87.9835C102.524 89.593 107.657 89.3496 112.236 87.2984C116.815 85.2471 120.529 81.5271 122.69 76.8275C126.148 77.8125 129.767 78.0121 133.304 77.4129C136.841 76.8137 140.216 75.4295 143.201 73.3531C146.186 71.2767 148.713 68.556 150.612 65.3735C152.511 62.1909 153.739 58.6199 154.213 54.8999C154.687 51.1798 154.396 47.3966 153.361 43.8037C152.325 40.2108 150.568 36.8913 148.207 34.0677C145.847 31.244 142.937 28.9813 139.674 27.4314C136.41 25.8814 132.868 25.08 129.285 25.0807Z" fill="#0A7E54"/>
<path d="M145.432 158.822C145.408 164.473 143.248 169.883 139.424 173.87C135.601 177.857 130.425 180.095 125.03 180.095C119.635 180.095 114.46 177.857 110.636 173.87C106.813 169.883 104.653 164.473 104.628 158.822H145.432Z" fill="white" stroke="#292A2E" stroke-width="2" stroke-linecap="round" stroke-linejoin="round"/>
<path d="M145.43 158.822C145.43 164.489 143.281 169.923 139.455 173.93C135.629 177.937 130.44 180.188 125.03 180.188C119.619 180.188 114.431 177.937 110.605 173.93C106.779 169.923 104.63 164.489 104.63 158.822" fill="white"/>
<path d="M145.43 158.822C145.43 164.489 143.281 169.923 139.455 173.93C135.629 177.937 130.44 180.188 125.03 180.188C119.619 180.188 114.431 177.937 110.605 173.93C106.779 169.923 104.63 164.489 104.63 158.822" stroke="#292A2E" stroke-width="2" stroke-linecap="round" stroke-linejoin="round"/>
<path d="M215.816 158.822V212.128C215.815 214.368 214.965 216.515 213.452 218.098C211.94 219.682 209.889 220.571 207.75 220.571H42.3103C40.1719 220.571 38.1209 219.682 36.6085 218.098C35.096 216.515 34.2457 214.368 34.2446 212.128V158.822H104.629C104.653 164.473 106.813 169.883 110.637 173.87C114.46 177.857 119.636 180.095 125.031 180.095C130.426 180.095 135.601 177.857 139.425 173.87C143.248 169.883 145.408 164.473 145.433 158.822H215.816Z" fill="white"/>
<path d="M207.751 221H42.3101C40.0636 220.998 37.9097 220.062 36.3208 218.399C34.732 216.736 33.838 214.48 33.835 212.127V158.822C33.835 158.709 33.8781 158.6 33.9549 158.519C34.0317 158.439 34.1358 158.394 34.2444 158.394H104.629C104.737 158.394 104.841 158.439 104.918 158.519C104.995 158.6 105.038 158.709 105.038 158.822C105.038 164.376 107.144 169.702 110.894 173.628C114.643 177.555 119.728 179.761 125.03 179.761C130.333 179.761 135.418 177.555 139.167 173.628C142.916 169.702 145.023 164.376 145.023 158.822C145.023 158.709 145.066 158.6 145.142 158.519C145.219 158.439 145.323 158.394 145.432 158.394H215.816C215.924 158.394 216.029 158.439 216.105 158.519C216.182 158.6 216.225 158.709 216.225 158.822V212.127C216.222 214.48 215.328 216.736 213.74 218.399C212.151 220.062 209.997 220.998 207.751 221ZM34.6534 159.251V212.127C34.6562 214.253 35.4639 216.29 36.8992 217.793C38.3345 219.296 40.2803 220.14 42.3097 220.142H207.751C209.78 220.14 211.726 219.296 213.161 217.793C214.596 216.29 215.404 214.253 215.407 212.127V159.251H145.837C145.732 164.958 143.493 170.394 139.603 174.39C135.712 178.387 130.48 180.626 125.03 180.626C119.58 180.626 114.348 178.387 110.457 174.39C106.567 170.394 104.328 164.958 104.223 159.251H34.6534Z" fill="#292A2E"/>
<path d="M215.816 158.822H145.432C145.408 164.473 143.248 169.883 139.424 173.87C135.601 177.857 130.425 180.095 125.03 180.095C119.635 180.095 114.46 177.857 110.636 173.87C106.813 169.883 104.653 164.473 104.628 158.822H34.2441L85.7007 124.92H166.419L215.816 158.822Z" fill="#0A7E54"/>
<path opacity="0.6" d="M215.816 158.822H145.432C145.408 164.473 143.248 169.883 139.424 173.87C135.601 177.857 130.425 180.095 125.03 180.095C119.635 180.095 114.46 177.857 110.636 173.87C106.813 169.883 104.653 164.473 104.628 158.822H34.2441L85.7007 124.92H166.419L215.816 158.822Z" fill="white"/>
<path d="M125.03 180.619C119.584 180.613 114.356 178.373 110.467 174.379C106.577 170.385 104.336 164.955 104.223 159.251H34.2441C34.1552 159.251 34.0688 159.221 33.9978 159.165C33.9268 159.109 33.8751 159.03 33.8505 158.941C33.8259 158.852 33.8297 158.756 33.8614 158.669C33.8931 158.582 33.951 158.509 34.0263 158.459L85.4828 124.557C85.548 124.514 85.6235 124.491 85.7006 124.491H166.419C166.499 124.491 166.576 124.516 166.643 124.562L216.04 158.464C216.114 158.514 216.17 158.589 216.2 158.675C216.23 158.762 216.233 158.857 216.208 158.945C216.183 159.033 216.131 159.111 216.06 159.166C215.99 159.221 215.904 159.251 215.816 159.251H145.837C145.724 164.954 143.483 170.385 139.594 174.379C135.705 178.372 130.477 180.612 125.03 180.619ZM35.664 158.394H104.629C104.737 158.394 104.841 158.439 104.918 158.519C104.995 158.6 105.038 158.709 105.038 158.822C105.038 164.376 107.145 169.702 110.894 173.628C114.643 177.555 119.728 179.761 125.03 179.761C130.333 179.761 135.418 177.555 139.167 173.628C142.916 169.702 145.023 164.376 145.023 158.822C145.023 158.709 145.066 158.6 145.143 158.519C145.219 158.439 145.323 158.394 145.432 158.394H214.444L166.296 125.349H85.8185L35.664 158.394Z" fill="#292A2E"/>
<path d="M96.6963 42.4836L178.577 81.5891L153.681 138.771C153.293 139.66 152.585 140.352 151.711 140.694C150.837 141.036 149.87 141 149.021 140.595L73.5411 104.546C72.6923 104.141 72.032 103.399 71.7055 102.484C71.379 101.568 71.413 100.555 71.8001 99.6657L96.6963 42.4836Z" fill="#B3261E"/>
<path d="M96.6963 42.4836L178.577 81.5891L153.681 138.771C153.293 139.66 152.585 140.352 151.711 140.694C150.837 141.036 149.87 141 149.021 140.595L73.5411 104.546C72.6923 104.141 72.032 103.399 71.7055 102.484C71.379 101.568 71.413 100.555 71.8001 99.6657L96.6963 42.4836Z" fill="white"/>
<path d="M150.478 141.356C149.916 141.356 149.361 141.229 148.851 140.984L73.3715 104.936C72.4246 104.483 71.6881 103.654 71.3238 102.633C70.9594 101.611 70.9969 100.48 71.428 99.4877L96.3239 42.3053C96.3462 42.2539 96.3779 42.2078 96.4173 42.1693C96.4567 42.1309 96.5029 42.1009 96.5533 42.0812C96.6037 42.0615 96.6574 42.0524 96.7112 42.0544C96.765 42.0564 96.8178 42.0695 96.8668 42.093L178.746 81.1976C178.796 81.2208 178.84 81.2538 178.877 81.295C178.914 81.3361 178.942 81.3844 178.961 81.4372C178.98 81.49 178.989 81.5462 178.988 81.6026C178.986 81.6589 178.973 81.7144 178.951 81.7658L154.053 138.948C153.74 139.666 153.236 140.274 152.603 140.701C151.969 141.128 151.232 141.355 150.478 141.356ZM96.8995 43.0527L72.1731 99.8436C71.832 100.629 71.8024 101.525 72.0908 102.333C72.3792 103.141 72.962 103.797 73.7113 104.156L149.19 140.203C149.562 140.381 149.963 140.48 150.371 140.495C150.779 140.51 151.185 140.441 151.568 140.291C151.95 140.142 152.301 139.915 152.599 139.623C152.898 139.332 153.138 138.981 153.308 138.592L178.034 81.8001L96.8995 43.0527Z" fill="#292A2E"/>
<path d="M178.937 81.385L153.333 31.4683C152.96 30.7459 152.372 30.1707 151.658 29.8302C150.944 29.4897 150.144 29.4024 149.378 29.5816L96.6064 42.0664C96.5382 42.0825 96.4751 42.1166 96.4231 42.1655C96.3711 42.2144 96.3319 42.2765 96.3092 42.3457C96.2866 42.415 96.2812 42.4891 96.2937 42.5612C96.3061 42.6332 96.336 42.7007 96.3804 42.7572L125.298 79.5651C126.134 80.657 127.193 81.539 128.397 82.1462C129.601 82.7534 130.919 83.0705 132.255 83.0741H132.396L178.585 82.0192C178.655 82.0177 178.724 81.9973 178.784 81.9601C178.845 81.9229 178.895 81.8701 178.93 81.8067C178.966 81.7433 178.985 81.6715 178.986 81.5981C178.987 81.5247 178.97 81.4522 178.937 81.3876V81.385Z" fill="#292A2E"/>
<path d="M111.685 88.574C113.108 88.574 114.262 87.3658 114.262 85.8755C114.262 84.3852 113.108 83.177 111.685 83.177C110.262 83.177 109.109 84.3852 109.109 85.8755C109.109 87.3658 110.262 88.574 111.685 88.574Z" fill="#292A2E"/>
<path d="M135.854 100.084C137.277 100.084 138.43 98.8756 138.43 97.3852C138.43 95.8949 137.277 94.6867 135.854 94.6867C134.431 94.6867 133.277 95.8949 133.277 97.3852C133.277 98.8756 134.431 100.084 135.854 100.084Z" fill="#292A2E"/>
<path d="M144.679 98.4581C143.411 98.4579 142.157 98.1751 141.001 97.6286C139.845 97.0821 138.813 96.2843 137.973 95.2882C137.134 94.2921 136.506 93.1204 136.132 91.8509C135.758 90.5814 135.646 89.2431 135.804 87.9248C135.819 87.814 135.876 87.7142 135.961 87.6465C136.046 87.5788 136.153 87.5486 136.259 87.5625C136.365 87.5764 136.462 87.6332 136.529 87.7208C136.595 87.8083 136.627 87.9197 136.616 88.0311C136.459 89.3418 136.596 90.6727 137.016 91.9183C137.435 93.164 138.126 94.2904 139.033 95.2084C139.94 96.1263 141.038 96.8107 142.241 97.2073C143.444 97.604 144.718 97.702 145.964 97.4937C146.071 97.4758 146.181 97.5033 146.269 97.5701C146.357 97.6368 146.416 97.7375 146.433 97.8499C146.45 97.9622 146.424 98.0771 146.36 98.1692C146.296 98.2613 146.2 98.3231 146.093 98.3411C145.625 98.4189 145.153 98.458 144.679 98.4581Z" fill="#292A2E"/>
<path d="M111.155 82.704C109.793 82.7039 108.448 82.3782 107.224 81.7515C105.999 81.1248 104.928 80.2138 104.09 79.0878C104.024 78.9981 103.994 78.8843 104.007 78.7714C104.02 78.6586 104.076 78.5559 104.162 78.486C104.247 78.4161 104.356 78.3847 104.464 78.3988C104.572 78.4128 104.67 78.4711 104.736 78.5608C105.511 79.6033 106.507 80.4428 107.644 81.0128C108.782 81.5827 110.031 81.8676 111.292 81.8449C112.553 81.8221 113.792 81.4923 114.91 80.8817C116.028 80.271 116.996 79.3961 117.736 78.3263C117.767 78.2799 117.807 78.2406 117.853 78.2105C117.898 78.1803 117.95 78.1601 118.003 78.1508C118.057 78.1415 118.111 78.1435 118.164 78.1565C118.217 78.1695 118.266 78.1934 118.31 78.2267C118.354 78.26 118.391 78.3021 118.419 78.3506C118.448 78.399 118.466 78.4528 118.475 78.5089C118.483 78.565 118.48 78.6222 118.467 78.6773C118.454 78.7324 118.431 78.7842 118.399 78.8297C117.569 80.029 116.481 81.0054 115.222 81.6789C113.963 82.3523 112.569 82.7036 111.155 82.704Z" fill="#292A2E"/>
<path d="M123.733 117.858C123.643 117.858 123.554 117.827 123.483 117.769C123.411 117.71 123.36 117.629 123.337 117.537C122.671 114.844 121.174 112.458 119.078 110.75C116.982 109.042 114.406 108.108 111.75 108.094H111.685C109.298 108.09 106.965 108.833 104.985 110.228C104.895 110.289 104.785 110.311 104.68 110.288C104.575 110.266 104.482 110.201 104.423 110.107C104.363 110.014 104.34 109.9 104.36 109.789C104.38 109.679 104.44 109.581 104.528 109.516C106.643 108.026 109.136 107.232 111.685 107.236H111.754C114.591 107.252 117.342 108.25 119.581 110.074C121.819 111.899 123.418 114.447 124.13 117.323C124.157 117.433 124.141 117.55 124.086 117.648C124.031 117.746 123.941 117.817 123.836 117.845C123.802 117.854 123.768 117.859 123.733 117.858Z" fill="#292A2E"/>
</g>
<defs>
<clipPath id="clip0_154_4190">
<rect width="254" height="221" fill="white"/>
</clipPath>
</defs>
</svg>
