<svg width="15" height="21" viewBox="0 0 15 21" fill="none" xmlns="http://www.w3.org/2000/svg">
<path d="M5 0.5C4.33696 0.5 3.70107 0.763392 3.23223 1.23223C2.76339 1.70107 2.5 2.33696 2.5 3V15.5C2.5 16.163 2.76339 16.7989 3.23223 17.2678C3.70107 17.7366 4.33696 18 5 18H12.5C13.163 18 13.7989 17.7366 14.2678 17.2678C14.7366 16.7989 15 16.163 15 15.5V3C15 2.33696 14.7366 1.70107 14.2678 1.23223C13.7989 0.763392 13.163 0.5 12.5 0.5H5ZM3.75 3C3.75 2.66848 3.8817 2.35054 4.11612 2.11612C4.35054 1.8817 4.66848 1.75 5 1.75H12.5C12.8315 1.75 13.1495 1.8817 13.3839 2.11612C13.6183 2.35054 13.75 2.66848 13.75 3V15.5C13.75 15.8315 13.6183 16.1495 13.3839 16.3839C13.1495 16.6183 12.8315 16.75 12.5 16.75H5C4.66848 16.75 4.35054 16.6183 4.11612 16.3839C3.8817 16.1495 3.75 15.8315 3.75 15.5V3ZM0 5.5C1.1148e-05 5.06117 0.115532 4.63007 0.334953 4.25004C0.554373 3.87 0.869961 3.55442 1.25 3.335V16.125C1.25 16.9538 1.57924 17.7487 2.16529 18.3347C2.75134 18.9208 3.5462 19.25 4.375 19.25H12.165C11.9456 19.63 11.63 19.9456 11.25 20.1651C10.8699 20.3845 10.4388 20.5 10 20.5H4.375C3.21468 20.5 2.10188 20.0391 1.28141 19.2186C0.460936 18.3981 0 17.2853 0 16.125V5.5Z" fill="#0A7E54"/>
</svg>
