<svg width="197" height="196" viewBox="0 0 197 196" fill="none" xmlns="http://www.w3.org/2000/svg">
<g filter="url(#filter0_d_154_3502)">
<path d="M98.4994 188C150.496 188 192.648 145.915 192.648 94C192.648 42.0852 150.496 0 98.4994 0C46.5025 0 4.35071 42.0852 4.35071 94C4.35071 145.915 46.5025 188 98.4994 188Z" fill="white"/>
<path opacity="0.1" d="M98.4994 188C150.496 188 192.648 145.915 192.648 94C192.648 42.0852 150.496 0 98.4994 0C46.5025 0 4.35071 42.0852 4.35071 94C4.35071 145.915 46.5025 188 98.4994 188Z" fill="#0A7E54"/>
<path d="M129.101 123.483L67.7024 123.298L67.955 40.02L110.411 40.1486L129.296 59.1189L129.101 123.483Z" fill="white"/>
<path opacity="0.3" d="M110.411 40.1486L110.354 59.0616L129.297 59.1189L110.411 40.1486Z" fill="#0A7E54"/>
<path d="M129.58 59.1017C129.578 59.0768 129.573 59.0521 129.565 59.0284C129.562 59.019 129.56 59.0101 129.556 58.9998C129.542 58.9688 129.523 58.9403 129.5 58.9159L110.614 39.9456C110.59 39.9216 110.562 39.9022 110.53 39.8883C110.522 39.8843 110.513 39.882 110.504 39.8788C110.48 39.8705 110.455 39.8654 110.429 39.8637C110.423 39.8637 110.418 39.8602 110.412 39.8602L67.9559 39.7317C67.8799 39.7317 67.8069 39.7618 67.7531 39.8155C67.6994 39.8692 67.6691 39.9421 67.6691 40.018L67.4165 123.296C67.4165 123.372 67.4467 123.444 67.5005 123.498C67.5543 123.552 67.6272 123.582 67.7033 123.582L129.101 123.768C129.177 123.768 129.25 123.738 129.304 123.684C129.358 123.63 129.388 123.557 129.388 123.481L129.583 59.1169C129.583 59.1135 129.58 59.108 129.58 59.1017ZM110.695 40.8406L128.604 58.8306L110.641 58.7762L110.695 40.8406ZM67.99 123.012L68.241 40.3072L110.123 40.434L110.066 59.0608C110.066 59.1367 110.096 59.2096 110.15 59.2633C110.204 59.3169 110.277 59.3471 110.353 59.3471L129.009 59.4044L128.815 123.196L67.99 123.012Z" fill="#817A7A"/>
<path d="M83.1636 88.5505C85.5374 88.5505 87.4618 86.6292 87.4618 84.2591C87.4618 81.8891 85.5374 79.9678 83.1636 79.9678C80.7898 79.9678 78.8655 81.8891 78.8655 84.2591C78.8655 86.6292 80.7898 88.5505 83.1636 88.5505Z" fill="#292A2E"/>
<path d="M112.636 88.5506C115.01 88.5506 116.934 86.6293 116.934 84.2592C116.934 81.8892 115.01 79.9679 112.636 79.9679C110.262 79.9679 108.338 81.8892 108.338 84.2592C108.338 86.6293 110.262 88.5506 112.636 88.5506Z" fill="#292A2E"/>
<path d="M103.662 96.127H92.1372C92.0612 96.127 91.9882 96.0969 91.9345 96.0432C91.8807 95.9895 91.8505 95.9167 91.8505 95.8407C91.8505 95.7648 91.8807 95.692 91.9345 95.6383C91.9882 95.5846 92.0612 95.5544 92.1372 95.5544H103.662C103.738 95.5544 103.811 95.5846 103.865 95.6383C103.919 95.692 103.949 95.7648 103.949 95.8407C103.949 95.9167 103.919 95.9895 103.865 96.0432C103.811 96.0969 103.738 96.127 103.662 96.127Z" fill="#262626"/>
<path d="M78.7299 96.5344C80.8474 96.5344 82.564 95.6323 82.564 94.5196C82.564 93.4068 80.8474 92.5047 78.7299 92.5047C76.6124 92.5047 74.8958 93.4068 74.8958 94.5196C74.8958 95.6323 76.6124 96.5344 78.7299 96.5344Z" fill="white"/>
<path d="M117.07 96.5343C119.187 96.5343 120.904 95.6322 120.904 94.5195C120.904 93.4067 119.187 92.5047 117.07 92.5047C114.952 92.5047 113.235 93.4067 113.235 94.5195C113.235 95.6322 114.952 96.5343 117.07 96.5343Z" fill="white"/>
<g opacity="0.4">
<path d="M78.7299 96.5344C80.8474 96.5344 82.564 95.6323 82.564 94.5196C82.564 93.4068 80.8474 92.5047 78.7299 92.5047C76.6124 92.5047 74.8958 93.4068 74.8958 94.5196C74.8958 95.6323 76.6124 96.5344 78.7299 96.5344Z" fill="#0A7E54"/>
<path d="M117.07 96.5343C119.187 96.5343 120.904 95.6322 120.904 94.5195C120.904 93.4067 119.187 92.5047 117.07 92.5047C114.952 92.5047 113.235 93.4067 113.235 94.5195C113.235 95.6322 114.952 96.5343 117.07 96.5343Z" fill="#0A7E54"/>
</g>
<path d="M129.389 59.8015C122.07 51.4121 111.714 46.2689 100.597 45.5031C89.4805 44.7372 78.5146 48.4115 70.1112 55.7177C56.072 67.9255 51.7578 88.2215 59.622 105.079C61.201 108.457 63.2257 111.609 65.6422 114.45L66.1584 115.061L27.6758 155.836C26.9721 156.593 26.5966 157.596 26.6311 158.628C26.6656 159.66 27.1074 160.637 27.8601 161.345C28.6128 162.053 29.6154 162.435 30.6491 162.408C31.6829 162.381 32.6641 161.947 33.3786 161.2L71.8517 120.432L72.4943 120.912C80.7967 127.13 91.1103 130.059 101.447 129.137C111.785 128.214 121.414 123.504 128.48 115.915C135.546 108.325 139.549 98.3929 139.717 88.0322C139.885 77.6715 136.206 67.6153 129.39 59.8015H129.389ZM131.801 89.7012C131.206 98.3158 127.361 106.385 121.043 112.282C114.726 118.179 106.404 121.465 97.7549 121.479C96.9564 121.479 96.1551 121.451 95.3512 121.394C89.7372 121.013 84.3039 119.255 79.5333 116.276C74.7627 113.297 70.8021 109.188 68.0028 104.315C65.2035 99.4414 63.6519 93.9535 63.4857 88.3379C63.3195 82.7223 64.5439 77.1526 67.0501 72.1225C69.5563 67.0925 73.2671 62.7577 77.8532 59.5025C82.4393 56.2473 87.7591 54.1723 93.3408 53.4615C98.9226 52.7507 104.594 53.4261 109.851 55.4278C115.109 57.4295 119.791 60.6957 123.481 64.9366C126.438 68.311 128.695 72.2369 130.124 76.4876C131.552 80.7382 132.122 85.2292 131.801 89.7012Z" fill="#0A7E54"/>
</g>
<defs>
<filter id="filter0_d_154_3502" x="0.350708" y="0" width="196.297" height="196" filterUnits="userSpaceOnUse" color-interpolation-filters="sRGB">
<feFlood flood-opacity="0" result="BackgroundImageFix"/>
<feColorMatrix in="SourceAlpha" type="matrix" values="0 0 0 0 0 0 0 0 0 0 0 0 0 0 0 0 0 0 127 0" result="hardAlpha"/>
<feOffset dy="4"/>
<feGaussianBlur stdDeviation="2"/>
<feComposite in2="hardAlpha" operator="out"/>
<feColorMatrix type="matrix" values="0 0 0 0 0 0 0 0 0 0 0 0 0 0 0 0 0 0 0.25 0"/>
<feBlend mode="normal" in2="BackgroundImageFix" result="effect1_dropShadow_154_3502"/>
<feBlend mode="normal" in="SourceGraphic" in2="effect1_dropShadow_154_3502" result="shape"/>
</filter>
</defs>
</svg>
