<svg width="221" height="196" viewBox="0 0 221 196" fill="none" xmlns="http://www.w3.org/2000/svg">
<g filter="url(#filter0_d_154_3502)">
<path d="M110.499 188C162.496 188 204.648 145.915 204.648 94C204.648 42.0852 162.496 0 110.499 0C58.5025 0 16.3507 42.0852 16.3507 94C16.3507 145.915 58.5025 188 110.499 188Z" fill="white"/>
<path opacity="0.1" d="M110.499 188C162.496 188 204.648 145.915 204.648 94C204.648 42.0852 162.496 0 110.499 0C58.5025 0 16.3507 42.0852 16.3507 94C16.3507 145.915 58.5025 188 110.499 188Z" fill="#B3261E"/>
<path d="M49.3117 125.927L4.28674 125.791L4.472 64.7219L35.6057 64.8161L49.4548 78.7275L49.3117 125.927Z" fill="white"/>
<path opacity="0.3" d="M35.6058 64.8161L35.5636 78.6854L49.4548 78.7275L35.6058 64.8161Z" fill="#B3261E"/>
<path d="M49.7381 78.7103C49.7364 78.6853 49.7315 78.6605 49.7235 78.6367C49.7204 78.6276 49.7181 78.6187 49.7141 78.6095C49.7007 78.5784 49.6817 78.55 49.6581 78.5256L35.8091 64.6142C35.7847 64.5903 35.7562 64.5709 35.725 64.557C35.7163 64.5533 35.7074 64.55 35.6984 64.5472C35.6743 64.5389 35.6492 64.5339 35.6238 64.5324C35.6178 64.5324 35.6123 64.5286 35.6063 64.5286L4.47289 64.4356C4.39683 64.4356 4.32389 64.4657 4.27011 64.5194C4.21633 64.5731 4.18612 64.646 4.18612 64.7219L4 125.79C4 125.866 4.03021 125.939 4.08399 125.993C4.13777 126.046 4.21072 126.076 4.28677 126.076L49.31 126.214C49.3861 126.214 49.459 126.183 49.5128 126.13C49.5666 126.076 49.5968 126.003 49.5968 125.927L49.7402 78.7275C49.7416 78.722 49.7384 78.7166 49.7381 78.7103ZM35.8891 65.5084L42.2841 71.9297L48.7634 78.4383L35.8512 78.3991L35.8891 65.5084ZM4.57354 125.505L4.75708 65.0091L35.317 65.1016L35.2759 78.6845C35.2759 78.7605 35.3062 78.8333 35.3599 78.887C35.4137 78.9407 35.4867 78.9709 35.5627 78.9709L49.1672 79.0121L49.0258 125.639L4.57354 125.505Z" fill="#262626"/>
<path d="M141.101 123.483L79.7024 123.298L79.955 40.02L122.411 40.1486L141.296 59.1189L141.101 123.483Z" fill="white"/>
<path opacity="0.3" d="M122.411 40.1486L122.354 59.0616L141.297 59.1189L122.411 40.1486Z" fill="#B3261E"/>
<path d="M141.58 59.1017C141.578 59.0768 141.573 59.0521 141.565 59.0284C141.562 59.019 141.56 59.0101 141.556 58.9998C141.542 58.9688 141.523 58.9403 141.5 58.9159L122.614 39.9456C122.59 39.9216 122.562 39.9022 122.53 39.8883C122.522 39.8843 122.513 39.882 122.504 39.8788C122.48 39.8705 122.455 39.8654 122.429 39.8637C122.423 39.8637 122.418 39.8602 122.412 39.8602L79.9559 39.7317C79.8799 39.7317 79.8069 39.7618 79.7531 39.8155C79.6994 39.8692 79.6691 39.9421 79.6691 40.018L79.4165 123.296C79.4165 123.372 79.4467 123.444 79.5005 123.498C79.5543 123.552 79.6272 123.582 79.7033 123.582L141.101 123.768C141.177 123.768 141.25 123.738 141.304 123.684C141.358 123.63 141.388 123.557 141.388 123.481L141.583 59.1169C141.583 59.1135 141.58 59.108 141.58 59.1017ZM122.695 40.8406L140.604 58.8306L122.641 58.7762L122.695 40.8406ZM79.99 123.012L80.241 40.3072L122.123 40.434L122.066 59.0608C122.066 59.1367 122.096 59.2096 122.15 59.2633C122.204 59.3169 122.277 59.3471 122.353 59.3471L141.009 59.4044L140.815 123.196L79.99 123.012Z" fill="#262626"/>
<path d="M216.581 121.927C216.574 124.136 214.778 125.922 212.569 125.915L175.544 125.803C173.335 125.796 171.549 124 171.556 121.791L171.717 68.7218C171.724 66.5127 173.52 64.7273 175.729 64.734L201.208 64.8111C202.268 64.8143 203.283 65.2379 204.031 65.989L215.542 77.552C216.291 78.3046 216.71 79.3242 216.707 80.3862L216.581 121.927Z" fill="white"/>
<path opacity="0.3" d="M202.863 64.8161L202.821 78.6854L216.712 78.7275L202.863 64.8161Z" fill="#B3261E"/>
<path d="M216.995 78.7103C216.994 78.6852 216.989 78.6605 216.981 78.6367C216.978 78.6275 216.975 78.6186 216.971 78.6095C216.958 78.5784 216.939 78.55 216.916 78.5256L203.066 64.6142C203.042 64.5903 203.014 64.5709 202.983 64.5569C202.974 64.5529 202.965 64.5503 202.956 64.5472C202.932 64.5388 202.907 64.5338 202.881 64.5323C202.875 64.5323 202.87 64.5286 202.864 64.5286L171.73 64.4344C171.654 64.4344 171.581 64.4646 171.527 64.5182C171.474 64.5719 171.443 64.6448 171.443 64.7207L171.258 125.79C171.258 125.866 171.288 125.938 171.342 125.992C171.396 126.046 171.469 126.076 171.545 126.076L216.57 126.212C216.646 126.212 216.719 126.182 216.773 126.128C216.826 126.075 216.857 126.002 216.857 125.926L217 78.7263C216.999 78.722 216.996 78.7166 216.995 78.7103ZM203.147 65.5084L209.54 71.9297L216.021 78.4383L203.108 78.399L203.147 65.5084ZM171.832 125.505L172.015 65.009L202.576 65.1015L202.534 78.6845C202.534 78.7604 202.565 78.8333 202.618 78.887C202.672 78.9406 202.745 78.9708 202.821 78.9708L216.426 79.012L216.284 125.639L171.832 125.505Z" fill="#262626"/>
<path d="M95.1636 88.5505C97.5374 88.5505 99.4618 86.6292 99.4618 84.2591C99.4618 81.8891 97.5374 79.9678 95.1636 79.9678C92.7898 79.9678 90.8655 81.8891 90.8655 84.2591C90.8655 86.6292 92.7898 88.5505 95.1636 88.5505Z" fill="#292A2E"/>
<path d="M124.636 88.5506C127.01 88.5506 128.934 86.6293 128.934 84.2592C128.934 81.8892 127.01 79.9679 124.636 79.9679C122.262 79.9679 120.338 81.8892 120.338 84.2592C120.338 86.6293 122.262 88.5506 124.636 88.5506Z" fill="#292A2E"/>
<path d="M115.662 96.127H104.137C104.061 96.127 103.988 96.0969 103.935 96.0432C103.881 95.9895 103.851 95.9167 103.851 95.8407C103.851 95.7648 103.881 95.692 103.935 95.6383C103.988 95.5846 104.061 95.5544 104.137 95.5544H115.662C115.738 95.5544 115.811 95.5846 115.865 95.6383C115.919 95.692 115.949 95.7648 115.949 95.8407C115.949 95.9167 115.919 95.9895 115.865 96.0432C115.811 96.0969 115.738 96.127 115.662 96.127Z" fill="#262626"/>
<path d="M90.7299 96.5344C92.8474 96.5344 94.564 95.6323 94.564 94.5196C94.564 93.4068 92.8474 92.5047 90.7299 92.5047C88.6124 92.5047 86.8958 93.4068 86.8958 94.5196C86.8958 95.6323 88.6124 96.5344 90.7299 96.5344Z" fill="white"/>
<path d="M129.069 96.5343C131.187 96.5343 132.904 95.6322 132.904 94.5195C132.904 93.4067 131.187 92.5047 129.069 92.5047C126.952 92.5047 125.235 93.4067 125.235 94.5195C125.235 95.6322 126.952 96.5343 129.069 96.5343Z" fill="white"/>
<g opacity="0.4">
<path d="M90.7299 96.5344C92.8474 96.5344 94.564 95.6323 94.564 94.5196C94.564 93.4068 92.8474 92.5047 90.7299 92.5047C88.6124 92.5047 86.8958 93.4068 86.8958 94.5196C86.8958 95.6323 88.6124 96.5344 90.7299 96.5344Z" fill="#B3261E"/>
<path d="M129.069 96.5343C131.187 96.5343 132.904 95.6322 132.904 94.5195C132.904 93.4067 131.187 92.5047 129.069 92.5047C126.952 92.5047 125.235 93.4067 125.235 94.5195C125.235 95.6322 126.952 96.5343 129.069 96.5343Z" fill="#B3261E"/>
</g>
<path d="M141.389 59.8015C134.07 51.4121 123.714 46.2689 112.597 45.5031C101.481 44.7372 90.5146 48.4115 82.1112 55.7177C68.072 67.9255 63.7578 88.2215 71.622 105.079C73.201 108.457 75.2257 111.609 77.6422 114.45L78.1584 115.061L39.6758 155.836C38.9721 156.593 38.5966 157.596 38.6311 158.628C38.6656 159.66 39.1074 160.637 39.8601 161.345C40.6128 162.053 41.6154 162.435 42.6491 162.408C43.6829 162.381 44.6641 161.947 45.3786 161.2L83.8517 120.432L84.4943 120.912C92.7967 127.13 103.11 130.059 113.447 129.137C123.785 128.214 133.414 123.504 140.48 115.915C147.546 108.325 151.549 98.3929 151.717 88.0322C151.885 77.6715 148.206 67.6153 141.39 59.8015H141.389ZM143.801 89.7012C143.206 98.3158 139.361 106.385 133.043 112.282C126.726 118.179 118.404 121.465 109.755 121.479C108.956 121.479 108.155 121.451 107.351 121.394C101.737 121.013 96.3039 119.255 91.5333 116.276C86.7627 113.297 82.8021 109.188 80.0028 104.315C77.2035 99.4414 75.6519 93.9535 75.4857 88.3379C75.3195 82.7223 76.5439 77.1526 79.0501 72.1225C81.5563 67.0925 85.2671 62.7577 89.8532 59.5025C94.4393 56.2473 99.7591 54.1723 105.341 53.4615C110.923 52.7507 116.594 53.4261 121.851 55.4278C127.109 57.4295 131.791 60.6957 135.481 64.9366C138.438 68.311 140.695 72.2369 142.124 76.4876C143.552 80.7382 144.122 85.2292 143.801 89.7012Z" fill="#B3261E"/>
</g>
<defs>
<filter id="filter0_d_154_3502" x="0" y="0" width="221" height="196" filterUnits="userSpaceOnUse" color-interpolation-filters="sRGB">
<feFlood flood-opacity="0" result="BackgroundImageFix"/>
<feColorMatrix in="SourceAlpha" type="matrix" values="0 0 0 0 0 0 0 0 0 0 0 0 0 0 0 0 0 0 127 0" result="hardAlpha"/>
<feOffset dy="4"/>
<feGaussianBlur stdDeviation="2"/>
<feComposite in2="hardAlpha" operator="out"/>
<feColorMatrix type="matrix" values="0 0 0 0 0 0 0 0 0 0 0 0 0 0 0 0 0 0 0.25 0"/>
<feBlend mode="normal" in2="BackgroundImageFix" result="effect1_dropShadow_154_3502"/>
<feBlend mode="normal" in="SourceGraphic" in2="effect1_dropShadow_154_3502" result="shape"/>
</filter>
</defs>
</svg>
