<svg width="199" height="214" viewBox="0 0 199 214" fill="none" xmlns="http://www.w3.org/2000/svg">
<path opacity="0.05" d="M182.209 27.6342H141.723C141.033 27.6342 140.474 28.1609 140.474 28.8106V55.1479C140.474 55.7976 141.033 56.3243 141.723 56.3243H182.209C182.898 56.3243 183.457 55.7976 183.457 55.1479V28.8106C183.457 28.1609 182.898 27.6342 182.209 27.6342Z" fill="#292A2E"/>
<path opacity="0.05" d="M158.576 36.3386C160.294 36.3386 161.686 35.0267 161.686 33.4083C161.686 31.7899 160.294 30.4779 158.576 30.4779C156.858 30.4779 155.466 31.7899 155.466 33.4083C155.466 35.0267 156.858 36.3386 158.576 36.3386Z" fill="#292A2E"/>
<path opacity="0.05" d="M159.748 46.8192L168.765 37.3425C169.327 36.7508 170.115 36.3921 170.957 36.3441C171.799 36.2962 172.627 36.5628 173.261 37.0863L183.457 45.4976V55.1523C183.457 55.4631 183.326 55.7612 183.093 55.9811C182.86 56.2009 182.543 56.3244 182.213 56.3244H171.132" fill="#292A2E"/>
<path opacity="0.1" d="M171.132 56.3244L151.582 40.0004C151.005 39.518 150.261 39.2483 149.49 39.241C148.718 39.2337 147.969 39.4892 147.381 39.9606L140.475 45.4976V55.2644C140.475 55.4037 140.504 55.5415 140.561 55.6701C140.617 55.7987 140.7 55.9156 140.805 56.014C140.909 56.1125 141.033 56.1905 141.17 56.2438C141.306 56.297 141.453 56.3244 141.6 56.3244H171.132Z" fill="#292A2E"/>
<path opacity="0.05" d="M77.7857 29.2917H41.371C40.7508 29.2917 40.248 29.7655 40.248 30.3498V54.039C40.248 54.6233 40.7508 55.097 41.371 55.097H77.7857C78.4059 55.097 78.9087 54.6233 78.9087 54.039V30.3498C78.9087 29.7655 78.4059 29.2917 77.7857 29.2917Z" fill="#292A2E"/>
<path opacity="0.05" d="M56.5288 37.1207C58.0737 37.1207 59.3261 35.9406 59.3261 34.485C59.3261 33.0294 58.0737 31.8494 56.5288 31.8494C54.9839 31.8494 53.7314 33.0294 53.7314 34.485C53.7314 35.9406 54.9839 37.1207 56.5288 37.1207Z" fill="#292A2E"/>
<path opacity="0.05" d="M57.5837 46.5476L65.6932 38.0238C66.1994 37.4916 66.9079 37.169 67.665 37.1258C68.4221 37.0827 69.1668 37.3225 69.7374 37.7933L78.9086 45.3589V54.0417C78.9086 54.3213 78.7907 54.5895 78.5808 54.7872C78.371 54.9849 78.0864 55.096 77.7896 55.096H67.8227" fill="#292A2E"/>
<path opacity="0.1" d="M67.8226 55.0981L50.2381 40.4164C49.7185 39.9825 49.05 39.74 48.3557 39.7334C47.6614 39.7268 46.988 39.9567 46.4592 40.3807L40.2493 45.3611V54.1457C40.2493 54.3986 40.3559 54.6411 40.5457 54.8199C40.7355 54.9987 40.9929 55.0992 41.2613 55.0992L67.8226 55.0981Z" fill="#292A2E"/>
<path d="M30.156 30.2026C28.0876 30.1889 26.0977 29.4552 24.5688 28.1426C23.0399 26.83 22.0801 25.0312 21.8738 23.0921C21.6676 21.153 22.2295 19.2105 23.4515 17.6382C24.6735 16.0658 26.4693 14.9747 28.4936 14.5745C27.9542 11.6879 28.5381 8.71477 30.1381 6.20111C31.2993 4.35218 32.9626 2.82837 34.9568 1.78665C36.951 0.744941 39.2039 0.223001 41.4834 0.274605C43.7629 0.32621 45.9866 0.949493 47.9254 2.08024C49.8642 3.21099 51.4479 4.80832 52.5135 6.70766C53.7668 5.89637 55.2845 5.52913 56.7977 5.67097C58.3108 5.81282 59.7219 6.45458 60.781 7.48264C61.807 8.47703 62.4484 9.76756 62.6021 11.1468C64.5214 11.2691 66.3642 11.9033 67.9153 12.9754C69.4664 14.0475 70.6618 15.5133 71.362 17.2015C72.0621 18.8897 72.2381 20.7307 71.8693 22.5096C71.5006 24.2885 70.6023 25.9319 69.2795 27.2479C68.3723 28.1551 67.2826 28.8831 66.0738 29.3896C64.865 29.896 63.5613 30.1707 62.2387 30.1977L30.156 30.2026Z" fill="#292A2E"/>
<path d="M27.7639 30.2027C25.6955 30.189 23.7056 29.4553 22.1767 28.1427C20.6479 26.8301 19.688 25.0313 19.4817 23.0922C19.2755 21.1531 19.8374 19.2106 21.0594 17.6383C22.2814 16.0659 24.0772 14.9748 26.1016 14.5746C25.5621 11.688 26.1459 8.71489 27.7458 6.20119C28.907 4.35227 30.5703 2.82847 32.5645 1.78676C34.5587 0.745058 36.8116 0.223123 39.0912 0.274727C41.3707 0.326332 43.5944 0.949609 45.5332 2.08035C47.472 3.21109 49.0558 4.8084 50.1214 6.70774C51.3748 5.89645 52.8924 5.52921 54.4056 5.67105C55.9187 5.8129 57.3298 6.45466 58.389 7.48272C59.4148 8.47718 60.0562 9.76768 60.21 11.1469C62.1293 11.2692 63.9721 11.9034 65.5232 12.9755C67.0743 14.0476 68.2697 15.5133 68.9699 17.2015C69.67 18.8898 69.846 20.7308 69.4772 22.5097C69.1085 24.2886 68.2103 25.932 66.8874 27.2479C65.9802 28.1551 64.8904 28.8832 63.6816 29.3896C62.4728 29.896 61.1692 30.1708 59.8466 30.1978L27.7639 30.2027Z" fill="white"/>
<path d="M27.764 30.4736C25.4746 30.4637 23.2828 29.5985 21.6695 28.068C20.0563 26.5374 19.1533 24.4664 19.1586 22.3093C19.1346 20.4729 19.7774 18.684 20.9806 17.2392C22.1837 15.7944 23.8749 14.7804 25.7736 14.3655C25.3084 11.4934 25.9183 8.55833 27.4986 6.06358C28.6719 4.19466 30.3473 2.65018 32.3561 1.58579C34.3648 0.521412 36.6358 -0.025254 38.9402 0.000896002C41.2447 0.027046 43.5011 0.625088 45.482 1.73474C47.4629 2.8444 49.0984 4.42646 50.2236 6.32146C51.5278 5.56045 53.0688 5.24213 54.5913 5.41924C56.1138 5.59634 57.5263 6.25824 58.5949 7.29527C59.6079 8.27737 60.2632 9.53755 60.466 10.8936C62.4161 11.0603 64.277 11.7409 65.8357 12.8575C67.3944 13.9741 68.588 15.4817 69.2798 17.2076C69.9717 18.9335 70.1337 20.8081 69.7476 22.6168C69.3614 24.4255 68.4426 26.0952 67.0962 27.4348C66.1628 28.3679 65.0417 29.1167 63.7982 29.6375C62.5547 30.1584 61.2136 30.4409 59.853 30.4687L27.764 30.4736ZM38.7861 0.543066C36.9443 0.552042 35.1268 0.939628 33.4604 1.67877C31.794 2.41791 30.319 3.4908 29.1381 4.82254C27.9573 6.15428 27.0992 7.7128 26.6236 9.38929C26.1481 11.0658 26.0666 12.8199 26.3849 14.5291L26.4329 14.7891L26.1583 14.8411C24.3301 15.1827 22.6866 16.1166 21.513 17.4808C20.3394 18.845 19.7098 20.5534 19.7336 22.3093C19.7281 24.3227 20.5705 26.256 22.0759 27.685C23.5814 29.114 25.627 29.9221 27.764 29.9318L59.8467 29.928C61.1303 29.901 62.3954 29.6336 63.5684 29.1416C64.7414 28.6496 65.7988 27.9427 66.6791 27.0621C67.9642 25.7835 68.8368 24.1869 69.1951 22.4586C69.5533 20.7303 69.3825 18.9417 68.7024 17.3015C68.0223 15.6612 66.8611 14.2371 65.3543 13.1953C63.8475 12.1535 62.0572 11.537 60.1926 11.4178L59.9493 11.4042L59.924 11.1759C59.7767 9.85734 59.1637 8.62363 58.1832 7.6726C57.1715 6.69034 55.8234 6.07709 54.3778 5.94145C52.9322 5.8058 51.4823 6.15651 50.2848 6.93147L50.0192 7.10402L49.8677 6.83586C48.8014 4.93749 47.2064 3.34865 45.2541 2.23997C43.3017 1.13129 41.0656 0.544651 38.7861 0.543066Z" fill="#292A2E"/>
<path d="M44.7243 25.8161C44.648 25.8161 44.5749 25.7876 44.521 25.7368C44.4671 25.686 44.4368 25.6171 44.4368 25.5452V9.81177C44.4368 9.73993 44.4671 9.67103 44.521 9.62023C44.5749 9.56943 44.648 9.54089 44.7243 9.54089C44.8005 9.54089 44.8736 9.56943 44.9276 9.62023C44.9815 9.67103 45.0118 9.73993 45.0118 9.81177V25.5452C45.0118 25.6171 44.9815 25.686 44.9276 25.7368C44.8736 25.7876 44.8005 25.8161 44.7243 25.8161Z" fill="#292A2E"/>
<path d="M51.0308 16.0243C50.993 16.0244 50.9556 16.0175 50.9207 16.0038C50.8858 15.9902 50.8542 15.9702 50.8275 15.945L44.7243 10.1947L38.6213 15.945C38.567 15.9943 38.4944 16.0216 38.419 16.021C38.3437 16.0204 38.2715 15.9919 38.2182 15.9417C38.1649 15.8914 38.1347 15.8235 38.134 15.7525C38.1334 15.6814 38.1624 15.613 38.2147 15.5619L44.5207 9.6202C44.5757 9.5713 44.6485 9.54407 44.7241 9.54407C44.7997 9.54407 44.8725 9.5713 44.9275 9.6202L51.2338 15.5619C51.274 15.5998 51.3013 15.6481 51.3124 15.7006C51.3235 15.7532 51.3178 15.8076 51.2961 15.8571C51.2743 15.9066 51.2375 15.9489 51.1902 15.9787C51.1429 16.0084 51.0874 16.0243 51.0305 16.0243H51.0308Z" fill="#292A2E"/>
<path opacity="0.05" d="M197.064 96.3696H134.288C133.219 96.3696 132.352 97.1863 132.352 98.1937V139.032C132.352 140.039 133.219 140.856 134.288 140.856H197.064C198.133 140.856 199 140.039 199 139.032V98.1937C199 97.1863 198.133 96.3696 197.064 96.3696Z" fill="#292A2E"/>
<path opacity="0.05" d="M160.419 109.867C163.083 109.867 165.242 107.832 165.242 105.323C165.242 102.814 163.083 100.779 160.419 100.779C157.756 100.779 155.597 102.814 155.597 105.323C155.597 107.832 157.756 109.867 160.419 109.867Z" fill="#292A2E"/>
<path opacity="0.05" d="M162.238 126.118L176.218 111.423C177.091 110.506 178.312 109.95 179.617 109.875C180.922 109.801 182.206 110.214 183.19 111.026L199 124.068V139.039C199 139.521 198.797 139.983 198.435 140.324C198.073 140.665 197.583 140.856 197.071 140.856H179.889" fill="#292A2E"/>
<path opacity="0.1" d="M179.889 140.856L149.574 115.544C148.679 114.796 147.526 114.378 146.329 114.367C145.132 114.356 143.971 114.752 143.06 115.483L132.352 124.069V139.213C132.352 139.429 132.397 139.643 132.485 139.842C132.572 140.042 132.701 140.223 132.863 140.376C133.025 140.528 133.217 140.649 133.429 140.732C133.64 140.815 133.867 140.857 134.096 140.857L179.889 140.856Z" fill="#292A2E"/>
<path opacity="0.05" d="M74.2966 135.022H10.5411C9.45525 135.022 8.57495 135.852 8.57495 136.875V178.35C8.57495 179.373 9.45525 180.203 10.5411 180.203H74.2966C75.3825 180.203 76.2628 179.373 76.2628 178.35V136.875C76.2628 135.852 75.3825 135.022 74.2966 135.022Z" fill="#292A2E"/>
<path opacity="0.05" d="M37.0799 148.73C39.7849 148.73 41.9777 146.664 41.9777 144.115C41.9777 141.567 39.7849 139.5 37.0799 139.5C34.375 139.5 32.1821 141.567 32.1821 144.115C32.1821 146.664 34.375 148.73 37.0799 148.73Z" fill="#292A2E"/>
<path opacity="0.05" d="M38.9272 165.234L53.1259 150.309C54.0123 149.377 55.2527 148.813 56.5782 148.737C57.9037 148.662 59.2073 149.082 60.2064 149.906L76.2634 163.152V178.356C76.2634 178.598 76.2127 178.838 76.1143 179.062C76.0158 179.286 75.8715 179.489 75.6896 179.661C75.5077 179.832 75.2917 179.968 75.0541 180.061C74.8164 180.154 74.5616 180.201 74.3044 180.201H56.8533" fill="#292A2E"/>
<path opacity="0.1" d="M56.8533 180.203L26.066 154.496C25.1562 153.737 23.9859 153.312 22.7703 153.301C21.5547 153.289 20.3756 153.691 19.4498 154.434L8.57495 163.152V178.532C8.57495 178.975 8.7616 179.399 9.09383 179.713C9.42606 180.026 9.87666 180.201 10.3465 180.201L56.8533 180.203Z" fill="#292A2E"/>
<path d="M144.173 12.7969H71.1434C65.1018 12.7969 60.2041 17.4115 60.2041 23.1038V184.858C60.2041 190.55 65.1018 195.165 71.1434 195.165H144.173C150.215 195.165 155.113 190.55 155.113 184.858V23.1038C155.113 17.4115 150.215 12.7969 144.173 12.7969Z" fill="#292A2E"/>
<path d="M144.139 16.0151H71.1775C67.029 16.0151 63.666 19.1837 63.666 23.0924V184.628C63.666 188.537 67.029 191.705 71.1775 191.705H144.139C148.288 191.705 151.651 188.537 151.651 184.628V23.0924C151.651 19.1837 148.288 16.0151 144.139 16.0151Z" fill="white"/>
<path d="M89.6384 14.6846H125.678V18.1981C125.678 19.2057 125.253 20.1718 124.497 20.8842C123.74 21.5965 122.715 21.9967 121.646 21.9967H93.672C92.6025 21.9967 91.5767 21.5964 90.8205 20.8838C90.0642 20.1712 89.6393 19.2048 89.6393 18.1971V14.6846H89.6384Z" fill="#292A2E"/>
<path d="M121.658 49.1758H93.6589C90.0683 49.1758 87.1575 51.9183 87.1575 55.3014V81.6821C87.1575 85.0652 90.0683 87.8077 93.6589 87.8077H121.658C125.249 87.8077 128.16 85.0652 128.16 81.6821V55.3014C128.16 51.9183 125.249 49.1758 121.658 49.1758Z" fill="white"/>
<path d="M121.658 88.0787H93.6588C91.8589 88.0769 90.1332 87.4023 88.8605 86.2032C87.5878 85.004 86.8719 83.3781 86.8699 81.6822V55.3016C86.8719 53.6057 87.5879 51.9798 88.8606 50.7807C90.1333 49.5815 91.8589 48.907 93.6588 48.905H121.658C123.458 48.907 125.183 49.5815 126.456 50.7807C127.729 51.9798 128.445 53.6057 128.447 55.3016V81.6822C128.445 83.3781 127.729 85.004 126.456 86.2032C125.183 87.4023 123.458 88.0769 121.658 88.0787ZM93.6588 49.4468C92.0114 49.4486 90.4319 50.066 89.267 51.1636C88.1021 52.2612 87.4468 53.7493 87.4449 55.3016V81.6822C87.4468 83.2344 88.1021 84.7226 89.267 85.8202C90.4319 86.9178 92.0114 87.5352 93.6588 87.537H121.658C123.305 87.5352 124.885 86.9179 126.05 85.8202C127.215 84.7226 127.87 83.2345 127.872 81.6822V55.3016C127.87 53.7493 127.215 52.2611 126.05 51.1635C124.885 50.0659 123.305 49.4485 121.658 49.4468H93.6588Z" fill="#292A2E"/>
<path opacity="0.6" d="M119.797 119.407V124.456H80.1995C79.4889 124.456 78.8073 124.19 78.3048 123.716C77.8023 123.243 77.52 122.601 77.52 121.931C77.52 121.262 77.8023 120.62 78.3048 120.146C78.8073 119.673 79.4889 119.407 80.1995 119.407H119.797Z" fill="#B3261E"/>
<path d="M135.117 124.727H80.2004C79.8082 124.731 79.4192 124.661 79.0558 124.522C78.6924 124.383 78.3618 124.178 78.0831 123.918C77.8045 123.658 77.5833 123.349 77.4323 123.008C77.2813 122.667 77.2036 122.301 77.2036 121.931C77.2036 121.562 77.2813 121.196 77.4323 120.855C77.5833 120.514 77.8045 120.204 78.0831 119.944C78.3618 119.684 78.6924 119.479 79.0558 119.34C79.4192 119.201 79.8082 119.132 80.2004 119.135H135.117C135.899 119.143 136.646 119.44 137.196 119.964C137.746 120.487 138.055 121.194 138.055 121.931C138.055 122.668 137.746 123.375 137.196 123.899C136.646 124.422 135.899 124.72 135.117 124.727ZM80.2004 119.677C79.884 119.674 79.5701 119.73 79.2768 119.842C78.9835 119.953 78.7166 120.119 78.4916 120.329C78.2667 120.538 78.0881 120.788 77.9662 121.063C77.8443 121.338 77.7816 121.633 77.7816 121.931C77.7816 122.229 77.8443 122.525 77.9662 122.8C78.0881 123.075 78.2667 123.324 78.4916 123.534C78.7166 123.744 78.9835 123.909 79.2768 124.021C79.5701 124.133 79.884 124.189 80.2004 124.185H135.117C135.747 124.179 136.348 123.939 136.792 123.517C137.235 123.094 137.483 122.525 137.483 121.931C137.483 121.338 137.235 120.768 136.792 120.346C136.348 119.924 135.747 119.684 135.117 119.677H80.2004Z" fill="#292A2E"/>
<path opacity="0.8" d="M126.856 141.675H88.4611C86.1986 141.675 84.3645 143.403 84.3645 145.535V155.898C84.3645 158.03 86.1986 159.758 88.4611 159.758H126.856C129.119 159.758 130.953 158.03 130.953 155.898V145.535C130.953 143.403 129.119 141.675 126.856 141.675Z" fill="#B3261E"/>
<path d="M130.951 155.899V157.675C130.951 158.698 130.52 159.68 129.752 160.403C128.984 161.127 127.942 161.534 126.856 161.534H88.4607C87.3744 161.534 86.3327 161.127 85.5646 160.403C84.7965 159.68 84.365 158.698 84.365 157.675V155.899C84.365 156.922 84.7965 157.904 85.5646 158.627C86.3327 159.351 87.3744 159.758 88.4607 159.758H126.856C127.942 159.758 128.984 159.351 129.752 158.627C130.52 157.904 130.951 156.922 130.951 155.899Z" fill="#B3261E"/>
<path d="M105.099 156.058C104.938 156.058 104.783 156.004 104.661 155.906L100.266 152.357C100.199 152.303 100.144 152.237 100.104 152.163C100.064 152.088 100.04 152.007 100.033 151.924C100.026 151.841 100.037 151.758 100.064 151.679C100.092 151.6 100.135 151.526 100.193 151.463C100.251 151.4 100.321 151.348 100.4 151.31C100.478 151.272 100.564 151.25 100.652 151.243C100.741 151.237 100.829 151.247 100.913 151.273C100.997 151.299 101.075 151.34 101.142 151.394L105.042 154.543L114.116 145.189C114.175 145.127 114.247 145.077 114.327 145.042C114.407 145.007 114.494 144.987 114.582 144.983C114.671 144.979 114.759 144.992 114.842 145.02C114.925 145.049 115.001 145.092 115.067 145.149C115.132 145.205 115.185 145.272 115.222 145.348C115.26 145.423 115.281 145.505 115.285 145.588C115.289 145.671 115.275 145.754 115.245 145.833C115.215 145.911 115.169 145.983 115.109 146.044L105.596 155.852C105.533 155.917 105.456 155.969 105.37 156.005C105.285 156.04 105.192 156.058 105.099 156.058Z" fill="white"/>
<path d="M107.658 78.1934C107.582 78.1934 107.509 78.1648 107.455 78.114C107.401 78.0632 107.371 77.9943 107.371 77.9225V59.0609C107.371 58.9891 107.401 58.9202 107.455 58.8694C107.509 58.8186 107.582 58.79 107.658 58.79C107.735 58.79 107.808 58.8186 107.862 58.8694C107.916 58.9202 107.946 58.9891 107.946 59.0609V77.9225C107.946 77.9943 107.916 78.0632 107.862 78.114C107.808 78.1648 107.735 78.1934 107.658 78.1934Z" fill="#292A2E"/>
<path d="M117.668 68.7627H97.6491C97.5728 68.7627 97.4997 68.7342 97.4458 68.6834C97.3919 68.6326 97.3616 68.5637 97.3616 68.4918C97.3616 68.42 97.3919 68.3511 97.4458 68.3003C97.4997 68.2495 97.5728 68.2209 97.6491 68.2209H117.668C117.744 68.2209 117.817 68.2495 117.871 68.3003C117.925 68.3511 117.955 68.42 117.955 68.4918C117.955 68.5637 117.925 68.6326 117.871 68.6834C117.817 68.7342 117.744 68.7627 117.668 68.7627Z" fill="#292A2E"/>
<path d="M49.1005 80.6319L52.3096 75.9286C52.3801 75.8252 52.4727 75.7369 52.5814 75.6691C52.6902 75.6013 52.8128 75.5556 52.9413 75.5348C53.0699 75.5141 53.2016 75.5189 53.3281 75.5487C53.4546 75.5786 53.5731 75.633 53.6761 75.7084C53.8615 75.8532 53.9832 76.0577 54.0178 76.2822C54.0523 76.5068 53.9971 76.7354 53.8629 76.9238L53.1749 77.9326L56.8837 75.6965C57.2913 75.441 57.9649 75.3733 58.2389 75.8232C58.3564 75.9899 58.4104 76.1891 58.3922 76.3884C58.3741 76.5876 58.2848 76.7753 58.1389 76.9206C58.1423 76.9235 58.1454 76.9268 58.1481 76.9303C58.1498 76.9334 58.1512 76.9367 58.1521 76.9401L58.7811 76.5462C58.8976 76.4733 59.0299 76.4258 59.1684 76.4072C59.3068 76.3886 59.4479 76.3993 59.5814 76.4386C59.7149 76.4779 59.8374 76.5448 59.94 76.6343C60.0426 76.7239 60.1226 76.8339 60.1744 76.9563C60.2517 77.1506 60.2559 77.3641 60.1863 77.561C60.1166 77.7579 59.9773 77.9262 59.7917 78.0379L59.524 78.2056C59.5259 78.2151 59.5259 78.2248 59.524 78.2343C59.7327 78.1607 59.9624 78.1593 60.172 78.2305C60.3816 78.3017 60.5575 78.4409 60.6683 78.623C60.7832 78.8258 60.8128 79.0619 60.7511 79.2842C60.6895 79.5066 60.5411 79.6989 60.3356 79.8228L59.6709 80.2388C59.6848 80.2392 59.6983 80.2426 59.7104 80.2489C59.7225 80.2551 59.7328 80.264 59.7405 80.2749C59.7492 80.288 59.7535 80.3033 59.7529 80.3187C59.958 80.3018 60.1634 80.3487 60.3375 80.4524C60.5115 80.5561 60.6446 80.7108 60.7163 80.8927C60.7874 81.0853 60.7875 81.2949 60.7165 81.4875C60.6454 81.6801 60.5075 81.8445 60.325 81.954L54.7171 85.466C53.9326 85.9574 53.0101 86.2168 52.0681 86.2109C51.126 86.2051 50.2073 85.9343 49.4297 85.4332C48.7594 85.0011 48.2943 84.3398 48.1333 83.5897C47.9722 82.8396 48.1279 82.06 48.5672 81.4163L49.1005 80.6319Z" fill="#B28B67"/>
<g opacity="0.2">
<path d="M54.4808 79.1503C54.4934 79.1681 54.5129 79.1805 54.5351 79.1848C54.5574 79.1891 54.5805 79.185 54.5995 79.1734L58.1239 77.0426C58.1433 77.0309 58.1569 77.0125 58.1618 76.9913C58.1666 76.9701 58.1624 76.948 58.15 76.9298C58.1375 76.9116 58.1179 76.8988 58.0955 76.8942C58.073 76.8896 58.0496 76.8936 58.0302 76.9053L54.5058 79.036C54.4962 79.0418 54.4879 79.0493 54.4814 79.0581C54.4749 79.0669 54.4702 79.0768 54.4678 79.0873C54.4654 79.0977 54.4652 79.1086 54.4672 79.1191C54.4692 79.1297 54.4735 79.1397 54.4796 79.1487L54.4808 79.1503Z" fill="#0C0C0C"/>
</g>
<g opacity="0.2">
<path d="M55.4342 80.6419C55.4468 80.6597 55.4663 80.6721 55.4885 80.6764C55.5107 80.6807 55.5339 80.6766 55.5529 80.6649L59.4862 78.2853C59.4958 78.2795 59.5041 78.272 59.5107 78.2632C59.5172 78.2544 59.5218 78.2444 59.5243 78.2339C59.5267 78.2234 59.5269 78.2126 59.5249 78.202C59.5228 78.1914 59.5185 78.1813 59.5123 78.1723C59.4993 78.1547 59.4797 78.1424 59.4575 78.1379C59.4352 78.1334 59.412 78.137 59.3924 78.1479L55.4583 80.5265C55.4487 80.5323 55.4403 80.5398 55.4338 80.5486C55.4273 80.5574 55.4226 80.5673 55.4202 80.5778C55.4178 80.5884 55.4176 80.5992 55.4196 80.6098C55.4217 80.6204 55.4259 80.6305 55.4322 80.6395L55.4342 80.6419Z" fill="#0C0C0C"/>
</g>
<g opacity="0.2">
<path d="M56.4583 82.261C56.4709 82.2787 56.4904 82.291 56.5125 82.2953C56.5347 82.2996 56.5577 82.2956 56.5767 82.284L59.7145 80.3879C59.7338 80.3761 59.7474 80.3577 59.7523 80.3365C59.7572 80.3154 59.7529 80.2932 59.7405 80.275C59.7281 80.2568 59.7085 80.244 59.686 80.2394C59.6636 80.2348 59.6401 80.2388 59.6208 80.2505L56.483 82.1467C56.4734 82.1524 56.4651 82.16 56.4586 82.1688C56.4521 82.1776 56.4475 82.1876 56.4451 82.1981C56.4426 82.2086 56.4425 82.2194 56.4446 82.23C56.4466 82.2406 56.4509 82.2506 56.4571 82.2596L56.4583 82.261Z" fill="#0C0C0C"/>
</g>
<path d="M21.4037 73.0032L36.2533 95.4739L26.9249 94.0445L48.6326 78.2412L56.5428 87.8869L34.8351 103.69C34.1632 104.179 33.3957 104.539 32.5764 104.749C31.7571 104.958 30.9019 105.014 30.0598 104.912C29.2177 104.81 28.4051 104.553 27.6684 104.156C26.9317 103.758 26.2853 103.228 25.7662 102.595C25.7279 102.547 25.6896 102.499 25.6512 102.451L25.5058 102.262L9.08765 80.7809L21.4037 73.0032Z" fill="#B3261E"/>
<path d="M17.2089 204.032C17.2089 204.032 18.2778 209.253 23.466 209.544C28.6542 209.835 27.5289 213.729 27.5289 213.729H7.70483V204.397L17.2089 204.032Z" fill="#B3261E"/>
<path d="M11.094 108.797C11.094 108.797 11.1564 107.228 11.1431 110.788C11.094 124.067 10.8493 139.235 10.2519 148.11C9.29136 162.379 6.82837 207.364 6.82837 207.364L19.856 207.261L32.4829 108.258L11.094 108.797Z" fill="#262626"/>
<path d="M25.8057 124.456C25.8057 124.456 26.3456 134.093 26.4456 136.355C26.6774 141.587 26.7576 147.004 26.7576 153.146L28.8112 137.045C28.8112 137.045 27.3084 132.001 25.8057 124.456Z" fill="#0A0A0A"/>
<path d="M40.4021 204.032C40.4021 204.032 41.471 209.253 46.6589 209.544C51.8468 209.835 50.7218 213.729 50.7218 213.729H30.8962V204.397L40.4021 204.032Z" fill="#B3261E"/>
<path d="M46.7098 109.828C46.7098 109.828 47.8638 155.213 47.6948 157.431L42.8499 207.02L30.0376 207.243L31.2862 155.638C31.2862 155.638 30.4053 141.402 26.7549 128.184C24.8872 121.4 23.7631 114.453 23.4004 107.452L46.7098 109.828Z" fill="#262626"/>
<path d="M10.9537 108.796L10.9111 108.798C10.9111 108.798 10.9407 108.024 10.9537 108.796Z" fill="#333333"/>
<path d="M48.5438 84.6368C48.2752 87.6108 46.9683 106.165 46.7098 109.829H11.1084C10.9072 106.524 10.0044 92.0779 9.24171 85.6171C8.51376 79.4519 8.41515 76.261 9.46222 74.4385C11.1731 71.4588 14.5179 69.8422 17.7056 69.4356C19.6523 69.1875 22.5799 69.0096 22.5799 69.0096C22.5799 69.0096 22.8274 73.7345 28.7383 73.997C36.7845 74.3545 36.2475 69.0093 36.2872 69.0093C37.5907 69.0093 44.1715 69.5873 45.8499 70.8041C49.4367 73.4037 49.1142 78.3346 48.5438 84.6368Z" fill="#B3261E"/>
<path d="M39.5505 69.1799C39.5131 69.1753 38.4867 72.8175 30.469 72.2508C24.9188 71.8592 23.5656 68.2995 23.4382 68.2995C24.0368 68.1798 25.0085 68.0557 25.2742 67.9217C25.7334 67.7223 26.1375 67.4258 26.4551 67.0552C26.7727 66.6846 26.9952 66.2499 27.1053 65.785C27.356 64.881 27.4836 61.4013 27.4836 59.6555L36.0234 61.4636C35.9044 63.4329 35.0712 67.9986 37.9916 68.8066C38.4778 68.9399 39.001 69.0631 39.5505 69.1799Z" fill="#B28B67"/>
<path d="M35.7285 65.3354C32.3616 65.5857 28.0365 64.2465 27.2151 60.0143L26.4739 56.1949C25.6523 51.9627 27.3456 48.1252 31.575 47.3965C35.8044 46.6676 39.6316 49.5538 40.4529 53.786L40.7813 55.4768C41.0964 57.1026 41.7355 64.889 35.7285 65.3354Z" fill="#B28B67"/>
<path d="M38.85 61.4496C38.2463 58.5886 37.9686 56.68 38.0008 54.666C38.852 53.2593 38.6281 51.6446 38.4346 50.9471C39.0208 51.2979 39.7101 51.4643 40.4031 51.4225C40.4031 51.4225 38.9944 46.0995 34.2107 44.667C33.3309 44.3444 31.0844 43.937 28.1017 44.3225C25.5645 44.6503 19.3108 46.4375 18.4173 53.0719V53.0757C18.3885 53.2956 17.7874 59.4077 16.5903 62.3397C14.9803 66.2818 12.7217 67.5067 12.7789 72.0551C12.8519 77.8532 27.815 78.4589 31.1534 78.2466C38.039 77.8088 41.8826 75.6759 41.9323 71.4597C41.9875 66.735 40.0592 67.1738 38.85 61.4496Z" fill="#0A0A0A"/>
<path d="M96.516 42.0756H50.3203C49.5335 42.0756 48.8958 42.6765 48.8958 43.4178V79.0958C48.8958 79.8371 49.5335 80.438 50.3203 80.438H96.516C97.3027 80.438 97.9405 79.8371 97.9405 79.0958V43.4178C97.9405 42.6765 97.3027 42.0756 96.516 42.0756Z" fill="#B3261E"/>
<path opacity="0.3" d="M96.516 42.0756H50.3203C49.5335 42.0756 48.8958 42.6765 48.8958 43.4178V79.0958C48.8958 79.8371 49.5335 80.438 50.3203 80.438H96.516C97.3027 80.438 97.9405 79.8371 97.9405 79.0958V43.4178C97.9405 42.6765 97.3027 42.0756 96.516 42.0756Z" fill="white"/>
<path opacity="0.8" d="M66.001 57.3029C67.961 57.3029 69.5499 55.8059 69.5499 53.9592C69.5499 52.1125 67.961 50.6155 66.001 50.6155C64.041 50.6155 62.4521 52.1125 62.4521 53.9592C62.4521 55.8059 64.041 57.3029 66.001 57.3029Z" fill="white"/>
<path opacity="0.5" d="M70.8877 69.5925L81.1755 58.779C81.8178 58.1037 82.7168 57.6943 83.6774 57.6396C84.638 57.5849 85.5828 57.8893 86.3068 58.4867L97.9415 68.0845V80.4382H83.8771" fill="white"/>
<path opacity="0.8" d="M83.877 80.4384L61.5692 61.8119C60.91 61.2615 60.0621 60.9538 59.1814 60.9455C58.3006 60.9371 57.4463 61.2286 56.7755 61.7664L48.8958 68.0847V80.4384" fill="white"/>
<path d="M96.5158 80.642H50.3204C49.886 80.6412 49.4697 80.4783 49.1625 80.1889C48.8554 79.8995 48.6825 79.5072 48.6816 79.098V43.4178C48.6822 43.0083 48.8549 42.6158 49.1621 42.3261C49.4693 42.0364 49.8858 41.8733 50.3204 41.8724H96.5158C96.9506 41.8729 97.3675 42.0359 97.675 42.3256C97.9826 42.6153 98.1556 43.0081 98.1562 43.4178V79.0958C98.1559 79.5057 97.983 79.8987 97.6754 80.1886C97.3679 80.4785 96.9508 80.6416 96.5158 80.642ZM50.3204 42.2788C50.0001 42.2795 49.6932 42.3998 49.4669 42.6132C49.2406 42.8267 49.1133 43.1161 49.1129 43.4178V79.0958C49.1136 79.3973 49.241 79.6863 49.4673 79.8996C49.6936 80.1128 50.0003 80.2329 50.3204 80.2335H96.5158C96.8361 80.2332 97.1432 80.1133 97.3699 79.9001C97.5965 79.6868 97.7242 79.3976 97.725 79.0958V43.4178C97.7245 43.1158 97.597 42.8263 97.3703 42.6128C97.1436 42.3992 96.8363 42.2791 96.5158 42.2788H50.3204Z" fill="#292A2E"/>
<path d="M77.2934 80.6319L80.5025 75.9286C80.573 75.8252 80.6656 75.7369 80.7744 75.6691C80.8831 75.6013 81.0057 75.5556 81.1342 75.5348C81.2628 75.5141 81.3945 75.5189 81.521 75.5487C81.6475 75.5786 81.766 75.633 81.869 75.7084C82.0544 75.8531 82.1762 76.0576 82.2108 76.2822C82.2454 76.5067 82.1903 76.7354 82.0561 76.9238L81.3679 77.9326L85.0766 75.6965C85.4842 75.441 86.1581 75.3733 86.4318 75.8232C86.5493 75.9899 86.6033 76.1891 86.5851 76.3884C86.567 76.5876 86.4777 76.7753 86.3318 76.9206C86.3352 76.9236 86.3384 76.9268 86.3413 76.9303C86.3428 76.9335 86.3441 76.9367 86.345 76.9401L86.9741 76.5462C87.0905 76.4733 87.2228 76.4258 87.3613 76.4072C87.4997 76.3886 87.6409 76.3993 87.7743 76.4386C87.9078 76.4779 88.0303 76.5448 88.1329 76.6343C88.2355 76.7239 88.3155 76.8339 88.3673 76.9563C88.4446 77.1506 88.4489 77.3641 88.3792 77.561C88.3095 77.7579 88.1703 77.9262 87.9846 78.0379L87.717 78.2056C87.7187 78.2151 87.7187 78.2248 87.717 78.2343C87.9256 78.1607 88.1552 78.1593 88.3648 78.2305C88.5743 78.3018 88.7502 78.4409 88.8609 78.623C88.9758 78.8258 89.0054 79.0619 88.9438 79.2842C88.8821 79.5066 88.7337 79.6989 88.5283 79.8228L87.8636 80.2388C87.8774 80.2392 87.8909 80.2426 87.903 80.2489C87.9151 80.2551 87.9255 80.264 87.9331 80.2749C87.9418 80.288 87.9461 80.3033 87.9455 80.3187C88.1507 80.3018 88.356 80.3487 88.5301 80.4524C88.7042 80.5561 88.8373 80.7108 88.9089 80.8927C88.9801 81.0853 88.9803 81.2949 88.9092 81.4875C88.8382 81.6802 88.7002 81.8445 88.5176 81.954L82.9097 85.466C82.1252 85.9574 81.2027 86.2168 80.2607 86.2109C79.3187 86.2051 78.3999 85.9343 77.6223 85.4332C76.952 85.0011 76.4869 84.3398 76.3259 83.5897C76.1648 82.8396 76.3205 82.06 76.7598 81.4163L77.2934 80.6319Z" fill="#B28B67"/>
<g opacity="0.2">
<path d="M82.6724 79.1503C82.685 79.1681 82.7046 79.1805 82.7268 79.1848C82.749 79.1891 82.7721 79.185 82.7912 79.1734L86.3156 77.0426C86.3252 77.0368 86.3334 77.0293 86.3399 77.0205C86.3464 77.0117 86.351 77.0018 86.3534 76.9913C86.3558 76.9808 86.356 76.97 86.354 76.9595C86.352 76.9489 86.3478 76.9388 86.3416 76.9298C86.3355 76.9208 86.3275 76.913 86.3181 76.9069C86.3088 76.9008 86.2983 76.8965 86.2871 76.8942C86.276 76.8919 86.2645 76.8917 86.2533 76.8936C86.2421 76.8955 86.2314 76.8995 86.2219 76.9053L82.6974 79.036C82.6878 79.0418 82.6795 79.0493 82.673 79.0581C82.6665 79.0669 82.6619 79.0768 82.6595 79.0873C82.657 79.0977 82.6568 79.1086 82.6589 79.1191C82.6609 79.1297 82.6651 79.1397 82.6713 79.1487L82.6724 79.1503Z" fill="#0C0C0C"/>
</g>
<g opacity="0.2">
<path d="M83.6269 80.6419C83.6395 80.6597 83.659 80.6721 83.6813 80.6764C83.7035 80.6807 83.7266 80.6766 83.7456 80.6649L87.6789 78.2853C87.6885 78.2795 87.6969 78.272 87.7034 78.2632C87.71 78.2544 87.7146 78.2444 87.717 78.2339C87.7195 78.2234 87.7197 78.2126 87.7176 78.202C87.7155 78.1914 87.7113 78.1813 87.7051 78.1723C87.6921 78.1547 87.6725 78.1424 87.6502 78.1379C87.628 78.1334 87.6047 78.137 87.5852 78.1479L83.6519 80.5257C83.6423 80.5315 83.6339 80.539 83.6274 80.5478C83.6209 80.5566 83.6162 80.5665 83.6138 80.577C83.6114 80.5875 83.6112 80.5984 83.6132 80.609C83.6153 80.6196 83.6195 80.6296 83.6258 80.6387L83.6269 80.6419Z" fill="#0C0C0C"/>
</g>
<g opacity="0.2">
<path d="M84.6511 82.261C84.6637 82.2787 84.6831 82.291 84.7053 82.2953C84.7275 82.2996 84.7505 82.2956 84.7695 82.284L87.9073 80.3879C87.9266 80.3761 87.9402 80.3577 87.9451 80.3365C87.95 80.3154 87.9457 80.2932 87.9333 80.275C87.9209 80.2568 87.9013 80.244 87.8788 80.2394C87.8564 80.2348 87.8329 80.2388 87.8136 80.2505L84.6761 82.1467C84.6665 82.1524 84.6581 82.1599 84.6516 82.1687C84.645 82.1775 84.6404 82.1875 84.638 82.198C84.6355 82.2085 84.6353 82.2194 84.6374 82.2299C84.6394 82.2405 84.6437 82.2506 84.6499 82.2596L84.6511 82.261Z" fill="#0C0C0C"/>
</g>
<path d="M46.9004 71.9341L64.2486 95.2107L55.1188 94.0446L76.8263 78.2412L84.7365 87.887L63.0287 103.69C61.6876 104.667 59.9931 105.108 58.3101 104.919C56.627 104.73 55.09 103.926 54.0301 102.68L53.8978 102.524L35.0403 80.3151L46.9004 71.9341Z" fill="#B3261E"/>
<path d="M0.287497 214H189.501C189.577 214 189.65 213.971 189.704 213.921C189.758 213.87 189.788 213.801 189.788 213.729C189.788 213.657 189.758 213.588 189.704 213.538C189.65 213.487 189.577 213.458 189.501 213.458H0.287497C0.211248 213.458 0.138122 213.487 0.0842061 213.538C0.0302898 213.588 0 213.657 0 213.729C0 213.801 0.0302898 213.87 0.0842061 213.921C0.138122 213.971 0.211248 214 0.287497 214Z" fill="#262626"/>
</svg>
