<svg width="262" height="211" viewBox="0 0 262 211" fill="none" xmlns="http://www.w3.org/2000/svg">
<path d="M152.594 58.7469C152.594 58.7469 152.205 37.2365 171.013 37.2365C190.841 37.2365 187.169 22.6802 206.297 23.8683C219.226 24.6723 222.579 38.7909 230.013 40.8771C237.448 42.9632 244.447 45.4947 244.447 58.3397L152.594 58.7469Z" fill="white"/>
<path d="M193.236 166.124C193.236 166.124 192.949 150.255 206.825 150.255C221.454 150.255 218.744 139.516 232.856 140.393C242.394 140.986 244.867 151.402 250.353 152.941C255.839 154.481 261.002 156.348 261.002 165.825L193.236 166.124Z" fill="white"/>
<path d="M0.000542609 93.3956C0.000542609 93.3956 -0.344474 74.2837 16.3654 74.2837C33.9817 74.2837 30.7193 61.3512 47.7124 62.4084C59.1974 63.1226 62.1766 75.6664 68.783 77.5198C75.3894 79.3733 81.6068 81.6223 81.6068 93.0346L0.000542609 93.3956Z" fill="white"/>
<path opacity="0.1" d="M152.594 58.7469C152.594 58.7469 152.205 37.2365 171.013 37.2365C190.841 37.2365 187.169 22.6802 206.297 23.8683C219.226 24.6723 222.579 38.7909 230.013 40.8771C237.448 42.9632 244.447 45.4947 244.447 58.3397L152.594 58.7469Z" fill="#0A7E54"/>
<path opacity="0.1" d="M193.236 166.124C193.236 166.124 192.949 150.255 206.825 150.255C221.454 150.255 218.744 139.516 232.856 140.393C242.394 140.986 244.867 151.402 250.353 152.941C255.839 154.481 261.002 156.348 261.002 165.825L193.236 166.124Z" fill="#0A7E54"/>
<path opacity="0.1" d="M0.000542609 93.3956C0.000542609 93.3956 -0.344474 74.2837 16.3654 74.2837C33.9817 74.2837 30.7193 61.3512 47.7124 62.4084C59.1974 63.1226 62.1766 75.6664 68.783 77.5198C75.3894 79.3733 81.6068 81.6223 81.6068 93.0346L0.000542609 93.3956Z" fill="#0A7E54"/>
<path d="M195.423 12.379C195.278 12.1383 195.182 11.8695 195.141 11.5891C195.1 11.3087 195.114 11.0226 195.184 10.7482C195.253 10.4738 195.376 10.2169 195.544 9.99306C195.712 9.76927 195.923 9.58329 196.164 9.4465C196.638 9.19844 197.185 9.14574 197.695 9.29908C198.205 9.45241 198.64 9.80033 198.912 10.2725L200.353 12.666L199.656 4.25371C199.507 3.17501 199.986 1.75459 201.166 1.65905C202.115 1.51689 202.888 0.198567 204.023 0.778369C204.034 0.775287 212.942 8.03263 213.082 9.03197L213.631 22.3481C214.227 26.5882 200.293 25.7383 200.293 25.7383L195.423 12.379Z" fill="#B28B67"/>
<g opacity="0.1">
<path d="M195.423 12.379C195.278 12.1383 195.182 11.8695 195.141 11.5891C195.1 11.3087 195.114 11.0226 195.184 10.7482C195.253 10.4738 195.376 10.2169 195.544 9.99306C195.712 9.76927 195.923 9.58329 196.164 9.4465C196.638 9.19844 197.185 9.14574 197.695 9.29908C198.205 9.45241 198.64 9.80033 198.912 10.2725L200.353 12.666L199.656 4.25371C199.507 3.17501 199.986 1.75459 201.166 1.65905C202.115 1.51689 202.888 0.198567 204.023 0.778369C204.034 0.775287 212.942 8.03263 213.082 9.03197L213.631 22.3481C214.227 26.5882 200.293 25.7383 200.293 25.7383L195.423 12.379Z" fill="#0C0C0C"/>
</g>
<path d="M100.19 77.7004C100.19 77.7004 99.3896 90.1117 96.6891 94.6129C88.915 107.576 86.6627 122.158 94.448 129.777C102.233 137.397 151.89 137.503 155.652 119.98C158.819 105.227 152.022 103.641 150.369 91.4712C149.62 85.9645 147.562 74.4177 147.562 74.4177" fill="#0A0A0A"/>
<path d="M142.799 117.41C142.713 117.399 141.762 133.718 123.427 132.295C110.733 131.312 106.208 117.386 105.915 117.386C107.284 117.085 109.588 116.648 110.196 116.313C112.195 115.202 114.667 114.047 115.312 110.033C115.685 107.722 115.054 95.886 115.248 93.5444L134.732 98.0411C134.459 102.984 132.554 114.443 139.233 116.471C140.345 116.809 141.542 117.117 142.799 117.41Z" fill="#B28B67"/>
<path opacity="0.5" d="M135.006 111.79C134.701 110.773 134.505 109.725 134.42 108.664C134.206 106.242 134.249 103.803 134.548 101.391C130.588 100.838 126.857 99.1482 123.78 96.5129C123.418 97.8944 121.429 103.931 121.98 105.244C123.02 107.726 127.913 111.79 135.006 111.79Z" fill="#0C0C0C"/>
<path d="M132.487 106.706C124.805 107.476 114.866 104.297 112.807 93.7198L110.949 84.1756C108.89 73.5982 112.593 63.9053 122.226 61.9005C131.858 59.8972 140.726 66.9727 142.785 77.5501L143.608 81.7755C144.398 85.8341 146.192 105.335 132.487 106.706Z" fill="#B28B67"/>
<path d="M137.951 94.056C135.455 95.3683 132.607 95.7832 129.858 95.2353C129.763 95.2166 129.664 95.2263 129.574 95.2634C129.484 95.3004 129.406 95.3632 129.349 95.4445C129.293 95.5257 129.26 95.622 129.254 95.722C129.248 95.822 129.27 95.9217 129.317 96.0093C130.137 97.5029 132.081 100.054 135.416 99.0142C137.57 98.3423 138.384 96.0513 138.686 94.6343C138.707 94.5363 138.7 94.4343 138.666 94.3402C138.632 94.2461 138.574 94.1639 138.496 94.1032C138.419 94.0425 138.327 94.0058 138.23 93.9974C138.134 93.9891 138.037 94.0094 137.951 94.056Z" fill="white"/>
<path d="M138.107 82.5783C138.773 82.5783 139.313 82.02 139.313 81.3313C139.313 80.6426 138.773 80.0842 138.107 80.0842C137.441 80.0842 136.901 80.6426 136.901 81.3313C136.901 82.02 137.441 82.5783 138.107 82.5783Z" fill="#0C0C0C"/>
<path d="M126.518 84.6765C127.184 84.6765 127.724 84.1182 127.724 83.4294C127.724 82.7407 127.184 82.1824 126.518 82.1824C125.851 82.1824 125.312 82.7407 125.312 83.4294C125.312 84.1182 125.851 84.6765 126.518 84.6765Z" fill="#0C0C0C"/>
<path opacity="0.1" d="M127.604 92.8455C128.868 92.6896 129.803 91.7859 129.692 90.8272C129.582 89.8684 128.467 89.2177 127.203 89.3736C125.939 89.5296 125.004 90.4332 125.114 91.392C125.225 92.3507 126.34 93.0015 127.604 92.8455Z" fill="#0C0C0C"/>
<path opacity="0.1" d="M140.962 89.012C141.074 89.9694 142.189 90.6193 143.454 90.4652C143.672 90.4381 143.887 90.3876 144.096 90.3146C144.155 89.1731 144.158 88.0747 144.125 87.0581C143.774 86.9674 143.41 86.9453 143.051 86.993C141.787 87.1474 140.852 88.0505 140.962 89.012Z" fill="#0C0C0C"/>
<path opacity="0.5" d="M135.375 91.9712L135.394 91.9681C135.785 91.884 136.17 91.7777 136.549 91.6495C137.115 91.4538 137.854 91.1325 137.752 90.6036C137.635 90.0007 134.771 83.8305 134.446 83.1297C134.418 83.0684 134.367 83.0213 134.305 82.9988C134.243 82.9763 134.174 82.9802 134.115 83.0097C134.056 83.0392 134.01 83.0918 133.989 83.156C133.967 83.2202 133.971 83.2907 133.999 83.352C135.22 85.9798 137.187 90.3 137.266 90.706C137.204 90.8952 136.266 91.2647 135.297 91.4665C135.233 91.4782 135.176 91.5155 135.138 91.5703C135.101 91.6251 135.085 91.6931 135.096 91.7595C135.106 91.8259 135.141 91.8854 135.194 91.9253C135.246 91.9651 135.311 91.982 135.376 91.9724L135.375 91.9712Z" fill="#0C0C0C"/>
<path d="M103.263 87.6017L111.899 85.8577C118.422 83.0373 120.272 71.2829 120.272 71.2829C120.272 71.2829 128.322 79.2098 147.562 74.4165C147.562 74.4165 143.383 46.6454 114.974 55.0751C105.813 57.793 99.3249 67.4474 100.29 80.2346C100.966 89.1959 103.263 87.6017 103.263 87.6017Z" fill="#0A0A0A"/>
<path d="M114.032 96.8181C111.105 97.4272 108.101 94.683 107.512 91.6557C106.922 88.6284 108.971 86.466 111.898 85.8569L113.801 87.5709L116.548 96.2934L114.032 96.8181Z" fill="#B28B67"/>
<path d="M136.521 78.2086C137.254 77.673 138.11 77.3477 139.004 77.2659C139.452 77.2217 139.904 77.2477 140.345 77.3429C140.79 77.4369 141.222 77.5882 141.631 77.7933L141.644 77.7995C141.689 77.8201 141.741 77.8217 141.787 77.8037C141.833 77.7858 141.871 77.7498 141.892 77.7035C141.913 77.6572 141.916 77.6041 141.9 77.5558C141.883 77.5074 141.85 77.4675 141.805 77.4446C141.372 77.2081 140.912 77.0289 140.436 76.9115C139.956 76.7909 139.462 76.7456 138.969 76.777C137.971 76.8342 137.006 77.1668 136.174 77.7401C136.112 77.7841 136.069 77.8518 136.055 77.9286C136.041 78.0053 136.057 78.0847 136.099 78.1493C136.142 78.2138 136.207 78.2583 136.281 78.2729C136.356 78.2875 136.432 78.271 136.495 78.2271L136.502 78.2221L136.521 78.2086Z" fill="#0C0C0C"/>
<path d="M128.633 79.3356C127.653 79.1342 126.638 79.2084 125.694 79.5506C125.228 79.7167 124.789 79.9542 124.39 80.2552C123.994 80.5523 123.635 80.8998 123.323 81.2896C123.29 81.3282 123.273 81.3786 123.275 81.4301C123.278 81.4815 123.3 81.5298 123.337 81.5645C123.374 81.5992 123.422 81.6176 123.472 81.6156C123.522 81.6136 123.569 81.5914 123.603 81.5539L123.613 81.5431C123.914 81.1918 124.257 80.8812 124.634 80.6185C125.006 80.3557 125.415 80.1527 125.846 80.0164C126.702 79.7388 127.614 79.7004 128.489 79.905L128.51 79.9104C128.583 79.9288 128.661 79.9163 128.725 79.8757C128.79 79.835 128.836 79.7696 128.854 79.6937C128.872 79.6178 128.86 79.5378 128.82 79.4711C128.781 79.4045 128.718 79.3567 128.644 79.3383L128.633 79.3356Z" fill="#0C0C0C"/>
<path d="M111.904 85.7113C117.709 83.4768 119.635 79.3323 120.229 76.248C120.613 74.191 120.577 72.0738 120.123 70.032L119.944 70.0828C120.39 72.0982 120.424 74.1877 120.045 76.2176C119.459 79.2514 117.56 83.3297 111.839 85.531L111.904 85.7113Z" fill="#0C0C0C"/>
<path d="M45.8175 40.5592L42.006 27.9665C41.9222 27.6899 41.7836 27.4342 41.5991 27.216C41.4145 26.9977 41.188 26.8215 40.934 26.6987C40.68 26.5759 40.4041 26.5091 40.1238 26.5026C39.8435 26.4961 39.5649 26.55 39.3058 26.6609C38.8337 26.8811 38.4574 27.2747 38.25 27.7654C38.0426 28.2561 38.0188 28.809 38.1832 29.3168L39.0007 32.0171L32.6607 24.7455C31.9695 23.9241 30.6115 23.3736 29.7735 24.2362C29.4294 24.5462 29.1971 24.9676 29.1145 25.4317C29.0319 25.8958 29.1038 26.3751 29.3186 26.7915C29.3094 26.7963 29.3008 26.8021 29.2929 26.8089C29.2877 26.8149 29.283 26.8214 29.2787 26.8281L28.2131 25.5618C28.0156 25.3273 27.7699 25.1413 27.494 25.0175C27.2181 24.8936 26.919 24.835 26.6184 24.8458C26.3178 24.8567 26.0234 24.9368 25.7565 25.0802C25.4897 25.2237 25.2572 25.4269 25.0759 25.6751C24.798 26.0716 24.6603 26.5549 24.6858 27.0439C24.7113 27.5329 24.8985 27.998 25.216 28.3614L25.6694 28.9008C25.6606 28.9216 25.6553 28.9439 25.6538 28.9666C25.2656 28.676 24.7901 28.5376 24.3123 28.5762C23.8344 28.6148 23.3855 28.8279 23.0457 29.1774C22.6848 29.571 22.4808 30.0908 22.4743 30.6331C22.4678 31.1754 22.6593 31.7003 23.0107 32.103L24.1374 33.4413C24.1085 33.4341 24.0784 33.434 24.0495 33.4411C24.0207 33.4482 23.9938 33.4623 23.9712 33.4822C23.9455 33.5072 23.9275 33.5395 23.9194 33.575C23.5042 33.4156 23.0499 33.4016 22.6263 33.5352C22.2027 33.6688 21.8332 33.9425 21.5747 34.3143C21.3108 34.7106 21.1841 35.1874 21.215 35.6675C21.2459 36.1475 21.4327 36.6028 21.745 36.9594L31.2508 48.2523C32.5809 49.8318 34.3367 50.9647 36.2934 51.506C38.2501 52.0473 40.3185 51.9722 42.2336 51.2904C43.8849 50.7021 45.2493 49.4712 46.037 47.8593C46.8246 46.2475 46.9734 44.3815 46.4517 42.6581L45.8175 40.5592Z" fill="#B28B67"/>
<g opacity="0.2">
<path d="M35.5591 34.0214C35.5221 34.0545 35.4741 34.0712 35.4253 34.068C35.3765 34.0647 35.3309 34.0418 35.2983 34.0041L29.2788 27.0808C29.2457 27.0427 29.2286 26.9927 29.2312 26.9417C29.2338 26.8906 29.256 26.8427 29.2927 26.8086C29.3295 26.7744 29.3779 26.7567 29.4272 26.7594C29.4766 26.7621 29.5229 26.785 29.556 26.823L35.5762 33.7463C35.6093 33.7843 35.6264 33.8343 35.6238 33.8853C35.6212 33.9363 35.5992 33.9842 35.5625 34.0183L35.5591 34.0214Z" fill="#0C0C0C"/>
</g>
<g opacity="0.2">
<path d="M32.6797 36.8511C32.6428 36.8842 32.5947 36.9009 32.5459 36.8977C32.4971 36.8944 32.4515 36.8715 32.4189 36.8338L25.7011 29.1072C25.6681 29.0692 25.651 29.0193 25.6536 28.9683C25.6562 28.9173 25.6782 28.8694 25.7149 28.8352C25.7524 28.8026 25.8005 28.786 25.8494 28.7887C25.8984 28.7915 25.9444 28.8133 25.9784 28.8499L32.6969 36.576C32.7299 36.614 32.747 36.664 32.7444 36.715C32.7419 36.766 32.7198 36.8139 32.6831 36.848L32.6797 36.8511Z" fill="#0C0C0C"/>
</g>
<g opacity="0.2">
<path d="M29.5773 39.9346C29.5403 39.9676 29.4922 39.9843 29.4434 39.981C29.3946 39.9777 29.349 39.9546 29.3165 39.9169L23.958 33.7552C23.9249 33.7172 23.9078 33.6672 23.9104 33.6161C23.913 33.5651 23.9352 33.5172 23.9719 33.483C24.0087 33.4488 24.0571 33.4312 24.1064 33.4339C24.1558 33.4366 24.2021 33.4594 24.2352 33.4975L29.5948 39.6615C29.6278 39.6995 29.6449 39.7495 29.6422 39.8005C29.6396 39.8515 29.6174 39.8993 29.5807 39.9335L29.5773 39.9346Z" fill="#0C0C0C"/>
</g>
<path d="M194.051 17.7698L181.851 78.6655L140.307 122.059L162.12 143.063L203.309 94.438L203.556 94.1506C205.008 92.4229 206.021 90.348 206.502 88.1138L220.487 23.6672L194.051 17.7698Z" fill="#0A7E54"/>
<path d="M122.806 128.236C110.104 127.617 109.57 116.469 109.57 116.469C109.57 116.469 103.276 116.889 99.0921 117.474C92.242 118.433 87.7236 120.834 84.1274 124.552C80.7823 128.011 81.7313 138.802 81.7313 138.802L85.0887 210.998H161.749L165.374 139.199C165.374 139.199 169.492 130.088 162.492 122.43C157.416 116.878 144.311 116.469 139.035 116.469C138.949 116.469 140.105 129.079 122.806 128.236Z" fill="#0A7E54"/>
<path d="M63.1281 90.7462L49.3922 39.9525L23.418 47.74L39.2966 102.425C40.0228 104.904 41.4016 107.124 43.2788 108.839L43.5396 109.075L85.3772 147.099L104.278 123.267L63.1281 90.7462Z" fill="#0A7E54"/>
<path d="M204.536 12.2584C204.323 11.9571 204.212 11.5924 204.219 11.2198C204.226 10.8472 204.35 10.487 204.573 10.1942C204.548 10.1796 204.476 10.1626 204.503 10.1171L203.262 10.7412C202.901 10.9334 202.484 10.9837 202.089 10.8829C201.694 10.782 201.348 10.5369 201.115 10.1927C200.895 9.84504 200.808 9.42545 200.87 9.01518C200.933 8.60492 201.14 8.23321 201.453 7.97207C201.437 7.96706 201.429 7.94973 201.415 7.93971L200.905 8.19629C200.564 8.37584 200.173 8.4279 199.798 8.34366C199.424 8.25941 199.089 8.04404 198.851 7.73398C198.705 7.53636 198.604 7.30779 198.554 7.06475C198.505 6.82171 198.507 6.57026 198.563 6.32856C198.619 6.08686 198.725 5.86093 198.876 5.66706C199.026 5.4732 199.216 5.31624 199.432 5.20751L200.608 4.61539C200.604 4.60961 200.596 4.60884 200.593 4.6019C200.59 4.59497 200.593 4.5838 200.591 4.57493C200.233 4.66143 199.858 4.61984 199.526 4.45698C199.194 4.29411 198.926 4.01962 198.765 3.67846C198.294 2.82474 198.99 1.85199 199.751 1.46943L202.238 0.456223C202.621 0.30005 203.036 0.24439 203.446 0.294195C203.855 0.344001 204.247 0.49773 204.585 0.741695C207.514 2.85056 215.038 8.54725 212.61 9.76888L206.633 12.7761C206.277 12.9431 205.878 12.9829 205.498 12.8891C205.119 12.7953 204.78 12.5734 204.536 12.2584Z" fill="#B28B67"/>
<path d="M20.6538 210.999H239.039C239.138 210.999 239.232 210.959 239.302 210.886C239.372 210.814 239.411 210.716 239.411 210.614C239.411 210.512 239.372 210.414 239.302 210.342C239.232 210.269 239.138 210.229 239.039 210.229H20.6538C20.555 210.229 20.4603 210.269 20.3904 210.342C20.3205 210.414 20.2812 210.512 20.2812 210.614C20.2812 210.716 20.3205 210.814 20.3904 210.886C20.4603 210.959 20.555 210.999 20.6538 210.999Z" fill="#292A2E"/>
<path d="M11.5726 126.955L8.79639 128.077L12.7122 138.435L15.4884 137.313L11.5726 126.955Z" fill="#0A7E54"/>
<path d="M236.758 95.2298L229.582 103.515L231.802 105.571L238.978 97.286L236.758 95.2298Z" fill="#0A7E54"/>
<path d="M203.858 132.31L202.07 134.777L210.679 141.445L212.466 138.977L203.858 132.31Z" fill="#05C883"/>
<path d="M74.4792 44.2386L66.6455 51.8606L68.6882 54.1051L76.5218 46.4831L74.4792 44.2386Z" fill="#0A7E54"/>
<path d="M161.246 31.3098L158.662 32.8458L164.023 42.4882L166.607 40.9521L161.246 31.3098Z" fill="#0A7E54"/>
<path d="M55.8453 163.931L50.105 173.337L52.6257 174.982L58.3661 165.576L55.8453 163.931Z" fill="#05C883"/>
<path d="M200.282 186.532L195.475 196.481L198.142 197.858L202.949 187.909L200.282 186.532Z" fill="#05C883"/>
<path d="M239.295 160.354L236.44 161.239L239.529 171.892L242.384 171.007L239.295 160.354Z" fill="#0A7E54"/>
<path d="M30.4474 189.686L28.7871 192.247L37.7255 198.442L39.3858 195.881L30.4474 189.686Z" fill="#0A7E54"/>
<path d="M125.883 7.34814L123.299 8.88416L128.66 18.5263L131.244 16.9903L125.883 7.34814Z" fill="#05C883"/>
</svg>
