<svg width="25" height="25" viewBox="0 0 25 25" fill="none" xmlns="http://www.w3.org/2000/svg">
<path d="M10.4759 12.7167C10.5684 12.5778 10.5626 12.3955 10.4613 12.2629C10.36 12.1303 10.1856 12.0766 10.0273 12.1294L7.68357 12.9107L7.93062 13.6518L9.19431 13.2306L8.26333 14.6271C8.17076 14.7659 8.17662 14.9482 8.27792 15.0809C8.37921 15.2135 8.55356 15.2671 8.71187 15.2143L9.97556 14.7931L9.04458 16.1896C8.95201 16.3284 8.95787 16.5107 9.05917 16.6434C9.16046 16.776 9.33481 16.8296 9.49312 16.7768L11.8369 15.9956L11.5898 15.2544L10.3261 15.6756L11.2571 14.2792C11.3497 14.1403 11.3438 13.958 11.2425 13.8254C11.1412 13.6928 10.9669 13.6391 10.8086 13.6919L9.54489 14.1131L10.4759 12.7167Z" fill="#061510"/>
<path d="M12.5 25C19.4036 25 25 19.4036 25 12.5C25 5.59644 19.4036 0 12.5 0C5.59644 0 0 5.59644 0 12.5C0 19.4036 5.59644 25 12.5 25ZM2.80933 17.5763L5.91599 14.9874C5.62345 14.2141 5.46335 13.3757 5.46335 12.5C5.46335 8.61675 8.61135 5.46875 12.4946 5.46875C14.5538 5.46875 16.4063 6.35399 17.6923 7.76468L11.7133 10.1562L13.2758 14.0625L15.359 18.9232C14.4841 19.314 13.5147 19.5312 12.4946 19.5312C11.6189 19.5312 10.7805 19.3711 10.0072 19.0786L7.41685 22.187C5.45256 21.1542 3.84084 19.5414 2.80933 17.5763ZM19.5258 12.5C19.5258 14.7318 18.486 16.7207 16.8644 18.0088L14.8383 13.2812L19.4619 11.5474C19.5041 11.8589 19.5258 12.1769 19.5258 12.5Z" fill="#061510"/>
</svg>
