<svg width="19" height="19" viewBox="0 0 19 19" fill="none" xmlns="http://www.w3.org/2000/svg">
<path d="M16.0833 9.16667H14.8333V5.83334C14.8333 4.91667 14.0833 4.16667 13.1666 4.16667H9.83329V2.91667C9.83329 1.76667 8.89996 0.833336 7.74996 0.833336C6.59996 0.833336 5.66663 1.76667 5.66663 2.91667V4.16667H2.33329C1.41663 4.16667 0.674959 4.91667 0.674959 5.83334V9H1.91663C3.15829 9 4.16663 10.0083 4.16663 11.25C4.16663 12.4917 3.15829 13.5 1.91663 13.5H0.666626V16.6667C0.666626 17.5833 1.41663 18.3333 2.33329 18.3333H5.49996V17.0833C5.49996 15.8417 6.50829 14.8333 7.74996 14.8333C8.99163 14.8333 9.99996 15.8417 9.99996 17.0833V18.3333H13.1666C14.0833 18.3333 14.8333 17.5833 14.8333 16.6667V13.3333H16.0833C17.2333 13.3333 18.1666 12.4 18.1666 11.25C18.1666 10.1 17.2333 9.16667 16.0833 9.16667Z" fill="#323232"/>
</svg>
