<svg width="40" height="40" viewBox="0 0 40 40" fill="none" xmlns="http://www.w3.org/2000/svg">
<path d="M0 5.21739C0 2.33591 2.23858 0 5 0H35C37.7614 0 40 2.33591 40 5.21739V26.087C40 28.9684 37.7614 31.3043 35 31.3043H28.75C27.9631 31.3043 27.2221 31.6909 26.75 32.3478L22 38.9565C21 40.3478 19 40.3478 18 38.9565L13.25 32.3478C12.7779 31.6909 12.0369 31.3043 11.25 31.3043H5C2.23858 31.3043 0 28.9684 0 26.087V5.21739ZM8.75 7.82609C8.05964 7.82609 7.5 8.41006 7.5 9.13043C7.5 9.85081 8.05964 10.4348 8.75 10.4348H31.25C31.9404 10.4348 32.5 9.85081 32.5 9.13043C32.5 8.41006 31.9404 7.82609 31.25 7.82609H8.75ZM8.75 14.3478C8.05964 14.3478 7.5 14.9318 7.5 15.6522C7.5 16.3725 8.05964 16.9565 8.75 16.9565H31.25C31.9404 16.9565 32.5 16.3725 32.5 15.6522C32.5 14.9318 31.9404 14.3478 31.25 14.3478H8.75ZM8.75 20.8696C8.05964 20.8696 7.5 21.4535 7.5 22.1739C7.5 22.8943 8.05964 23.4783 8.75 23.4783H21.25C21.9404 23.4783 22.5 22.8943 22.5 22.1739C22.5 21.4535 21.9404 20.8696 21.25 20.8696H8.75Z" fill="#0A7E54"/>
</svg>
