<svg width="40" height="40" viewBox="0 0 40 40" fill="none" xmlns="http://www.w3.org/2000/svg">
<path d="M32.5 16.2498C32.5 19.8453 31.3323 23.1681 29.3554 25.8595C29.4554 25.9333 29.5511 26.0154 29.6416 26.1059L39.2678 35.732C40.2441 36.7084 40.2441 38.2913 39.2678 39.2676C38.2915 40.2439 36.7085 40.2439 35.7322 39.2676L26.1061 29.6414C26.0156 29.5509 25.9334 29.4552 25.8597 29.3552L25.8619 29.3536C23.17 31.3315 19.8465 32.4998 16.25 32.4998C7.27537 32.4998 0 25.2244 0 16.2498C0 7.27518 7.27537 -0.000195503 16.25 -0.000195503C25.2246 -0.000195503 32.5 7.27518 32.5 16.2498ZM18.75 13.7498C26.3439 13.7498 7.5 25.0937 7.5 17.4998C7.5 9.90589 23.8439 19.2676 16.25 19.2676C8.65608 19.2676 26.1061 13.6559 26.1061 21.2498C26.1061 28.8437 11.1561 13.7498 18.75 13.7498Z" fill="#0A7E54"/>
</svg>
