<svg width="22" height="19" viewBox="0 0 22 19" fill="none" xmlns="http://www.w3.org/2000/svg">
<path d="M15.7517 17.4167C17.2015 17.4167 18.3767 16.3534 18.3767 15.0417C18.3767 13.7301 17.2015 12.6667 15.7517 12.6667C14.302 12.6667 13.1267 13.7301 13.1267 15.0417C13.1267 16.3534 14.302 17.4167 15.7517 17.4167Z" stroke="#1C1B1F" stroke-linecap="round" stroke-linejoin="round"/>
<path d="M5.25171 11.875C6.70146 11.875 7.87671 10.8117 7.87671 9.5C7.87671 8.18832 6.70146 7.125 5.25171 7.125C3.80196 7.125 2.62671 8.18832 2.62671 9.5C2.62671 10.8117 3.80196 11.875 5.25171 11.875Z" stroke="#1C1B1F" stroke-linecap="round" stroke-linejoin="round"/>
<path d="M7.51794 10.6953L13.4942 13.8461" stroke="#1C1B1F" stroke-linecap="round" stroke-linejoin="round"/>
<path d="M15.7517 6.33325C17.2015 6.33325 18.3767 5.26993 18.3767 3.95825C18.3767 2.64658 17.2015 1.58325 15.7517 1.58325C14.302 1.58325 13.1267 2.64658 13.1267 3.95825C13.1267 5.26993 14.302 6.33325 15.7517 6.33325Z" stroke="#1C1B1F" stroke-linecap="round" stroke-linejoin="round"/>
<path d="M13.4854 5.15381L7.51794 8.30464" stroke="#1C1B1F" stroke-linecap="round" stroke-linejoin="round"/>
</svg>
