<svg width="25" height="25" viewBox="0 0 25 25" fill="none" xmlns="http://www.w3.org/2000/svg">
<path d="M21.252 3.63507C18.9178 1.2889 15.8054 0 12.4911 0C5.66642 0 0.106914 5.55952 0.100974 12.3842C0.100974 14.57 0.671179 16.6964 1.75219 18.5792L0 25L6.56924 23.2775C8.38083 24.2635 10.4181 24.7862 12.4911 24.7862H12.497C19.3217 24.7862 24.8812 19.2267 24.8871 12.3961C24.8812 9.08767 23.5923 5.97529 21.252 3.63507ZM12.4911 22.6895C10.6379 22.6895 8.82631 22.1905 7.24636 21.2521L6.87217 21.0264L2.97576 22.048L4.0152 18.2466L3.77167 17.8546C2.73817 16.2153 2.19767 14.3205 2.19767 12.3782C2.19767 6.71181 6.81871 2.09076 12.497 2.09076C15.2471 2.09076 17.8308 3.16584 19.779 5.1081C21.7213 7.05631 22.7904 9.64006 22.7904 12.3901C22.7845 18.0744 18.1634 22.6895 12.4911 22.6895ZM18.1397 14.9798C17.8308 14.8254 16.3103 14.077 16.0252 13.9701C15.7401 13.8691 15.5322 13.8156 15.3302 14.1245C15.1223 14.4334 14.5284 15.1342 14.3502 15.3362C14.172 15.5441 13.9879 15.5678 13.679 15.4134C13.3701 15.259 12.3723 14.9323 11.1903 13.875C10.2696 13.0554 9.65192 12.0397 9.46779 11.7308C9.2896 11.422 9.44997 11.2556 9.6044 11.1012C9.74101 10.9646 9.91326 10.7389 10.0677 10.5607C10.2221 10.3825 10.2756 10.2518 10.3766 10.044C10.4775 9.83607 10.43 9.65788 10.3528 9.50345C10.2756 9.34902 9.65786 7.82252 9.39651 7.2048C9.14705 6.59896 8.89164 6.68211 8.70158 6.67617C8.52339 6.66429 8.3155 6.66429 8.10761 6.66429C7.89972 6.66429 7.5671 6.74151 7.282 7.05037C6.9969 7.35923 6.20099 8.10763 6.20099 9.63412C6.20099 11.1606 7.3117 12.6277 7.46613 12.8356C7.62056 13.0435 9.64598 16.1677 12.7524 17.5101C13.4889 17.8308 14.0651 18.0209 14.5165 18.1635C15.2589 18.401 15.9301 18.3654 16.4647 18.2882C17.0587 18.1991 18.2941 17.5398 18.5554 16.8152C18.8108 16.0905 18.8108 15.4728 18.7336 15.3421C18.6564 15.2115 18.4485 15.1342 18.1397 14.9798Z" fill="#1C1B1F"/>
</svg>
