<svg width="20" height="20" viewBox="0 0 20 20" fill="none" xmlns="http://www.w3.org/2000/svg">
<path d="M18.2954 6.17869C17.8404 5.16803 17.1874 4.26066 16.3582 3.47869C15.529 2.7041 14.5678 2.0918 13.4964 1.66393C12.3884 1.22131 11.2143 1 10.0036 1C8.79284 1 7.61877 1.22131 6.51075 1.66393C5.43942 2.0918 4.47816 2.69672 3.64898 3.47869C2.8198 4.26066 2.16674 5.16803 1.71179 6.17869C1.24216 7.22623 1 8.34754 1 9.49836C1 11.5123 1.74846 13.4451 3.12064 14.9795L2.38685 19L6.29062 17.2516C7.45734 17.7533 8.69744 18.0041 9.99625 18.0041C11.207 18.0041 12.3811 17.7828 13.4891 17.3402C14.5604 16.9123 15.5217 16.3074 16.3509 15.5254C17.18 14.7434 17.8331 13.8361 18.288 12.8254C18.7577 11.7779 18.9998 10.6566 18.9998 9.50574C19.0072 8.34754 18.765 7.23361 18.2954 6.17869Z" stroke="white"/>
<path d="M14.031 11.4087C13.6509 11.2213 13.3731 11.1059 13.1757 11.0338C13.0515 10.9905 12.759 10.8607 12.6567 10.94C12.335 11.1996 11.9914 11.9352 11.6259 12.0722C10.7194 11.8991 9.87867 11.2862 9.22072 10.6588C8.9283 10.3848 8.38732 9.60597 8.27035 9.39684C8.24842 9.18051 8.64317 8.89207 8.7309 8.72621C9.18415 8.22143 8.84057 7.90415 8.78209 7.69502C8.67974 7.47869 8.50429 7.08929 8.35077 6.772C8.21918 6.56288 8.18991 6.2528 7.95597 6.13742C6.96174 5.63265 6.39155 6.6422 6.15761 7.16861C4.74667 10.5218 13.2269 16.9036 14.9522 12.5048C15.0399 12.1226 15.0034 11.9784 14.8718 11.8054C14.6086 11.6251 14.3015 11.5458 14.031 11.4087Z" stroke="white"/>
</svg>
