<svg width="179" height="181" viewBox="0 0 179 181" fill="none" xmlns="http://www.w3.org/2000/svg">
<g clip-path="url(#clip0_24_4837)">
<path d="M152.896 82.9583H141.708V52.7917C141.708 44.4958 134.996 37.7083 126.792 37.7083H96.9583V26.3958C96.9583 15.9883 88.605 7.54167 78.3125 7.54167C68.02 7.54167 59.6667 15.9883 59.6667 26.3958V37.7083H29.8333C21.6292 37.7083 14.9913 44.4958 14.9913 52.7917V81.45H26.1042C37.2171 81.45 46.2417 90.5754 46.2417 101.812C46.2417 113.05 37.2171 122.175 26.1042 122.175H14.9167V150.833C14.9167 159.129 21.6292 165.917 29.8333 165.917H58.175V154.604C58.175 143.367 67.1996 134.242 78.3125 134.242C89.4254 134.242 98.45 143.367 98.45 154.604V165.917H126.792C134.996 165.917 141.708 159.129 141.708 150.833V120.667H152.896C163.188 120.667 171.542 112.22 171.542 101.812C171.542 91.405 163.188 82.9583 152.896 82.9583Z" fill="white"/>
</g>
<defs>
<clipPath id="clip0_24_4837">
<rect width="179" height="181" fill="white"/>
</clipPath>
</defs>
</svg>
